<svg xmlns="http://www.w3.org/2000/svg" enable-background="new 0 0 2500 2500" viewBox="0 0 2500 2500" id="GirlLoginInOnlineAccount"><path fill="#110e06" d="M2006.98,1348.59c-13.09,0-26.85-0.71-40.91-2.12c-1.79-0.18-3.1-1.78-2.92-3.57
				c0.19-1.79,1.8-3.09,3.57-2.92c19.31,1.94,37.87,2.53,55.36,1.77c1.74-0.05,3.32,1.32,3.4,3.12c0.08,1.8-1.32,3.32-3.12,3.4
				C2017.32,1348.48,2012.15,1348.59,2006.98,1348.59z M2077.54,1340.83c-1.48,0-2.82-1.01-3.17-2.52
				c-0.41-1.75,0.67-3.51,2.43-3.92c5.62-1.32,11.24-2.83,16.69-4.5c11.88-3.63,23.64-8.44,34.96-14.27
				c1.62-0.82,3.57-0.19,4.39,1.4c0.83,1.6,0.2,3.57-1.4,4.39c-11.67,6.01-23.8,10.96-36.05,14.71c-5.59,1.71-11.35,3.26-17.11,4.61
				C2078.04,1340.8,2077.79,1340.83,2077.54,1340.83z M1911.17,1337.9c-0.22,0-0.44-0.02-0.66-0.07
				c-17.06-3.5-34.9-7.84-54.53-13.27c-1.74-0.48-2.76-2.28-2.27-4.01c0.48-1.74,2.31-2.75,4.01-2.27
				c19.48,5.39,37.18,9.7,54.1,13.17c1.77,0.36,2.9,2.09,2.54,3.85C1914.05,1336.84,1912.69,1337.9,1911.17,1337.9z M2175.92,1290.2
				c-0.9,0-1.79-0.37-2.43-1.09c-1.2-1.34-1.08-3.4,0.26-4.6c14.12-12.62,26.05-26.67,35.47-41.78c0.95-1.53,2.97-2,4.49-1.04
				c1.53,0.95,1.99,2.96,1.04,4.49c-9.75,15.63-22.08,30.16-36.66,43.19C2177.47,1289.92,2176.7,1290.2,2175.92,1290.2z
				 M2233.08,1196.26c-0.22,0-0.45-0.02-0.68-0.07c-1.76-0.37-2.89-2.1-2.52-3.86c1.99-9.41,2.99-18.97,2.99-28.44
				c0-1.55-0.03-3.1-0.08-4.66c-0.25-7.16-1.1-14.25-2.53-21.06c-0.37-1.76,0.76-3.49,2.52-3.86c1.79-0.37,3.49,0.76,3.87,2.52
				c1.51,7.18,2.41,14.64,2.66,22.18c0.06,1.63,0.08,3.26,0.08,4.88c0,9.92-1.05,19.94-3.13,29.78
				C2235.94,1195.21,2234.58,1196.26,2233.08,1196.26z M2175.98,1157.48c-1.29,0-2.52-0.78-3.03-2.05
				c-0.67-1.67,0.15-3.57,1.82-4.24c9.53-3.81,17.73-9.63,23.7-16.84c4.92-5.93,9.08-12.81,12.39-20.44
				c0.71-1.65,2.64-2.41,4.29-1.7c1.65,0.72,2.41,2.64,1.7,4.29c-3.55,8.2-8.04,15.6-13.35,22c-6.67,8.05-15.76,14.52-26.3,18.74
				C2176.79,1157.41,2176.38,1157.48,2175.98,1157.48z M2122.79,1152.79c-0.72,0-1.45-0.24-2.05-0.73c-3.11-2.52-5.85-5.5-8.13-8.85
				c-4.71-6.91-7.2-15.27-7.2-24.19c0-7.28,1.66-14.82,4.81-21.81c0.74-1.64,2.66-2.37,4.31-1.63c1.64,0.74,2.37,2.67,1.63,4.31
				c-2.77,6.15-4.24,12.77-4.24,19.13c0,7.6,2.1,14.7,6.07,20.52c1.93,2.82,4.23,5.33,6.85,7.45c1.4,1.13,1.62,3.19,0.48,4.59
				C2124.68,1152.38,2123.74,1152.79,2122.79,1152.79z M2207.94,1091.94c-0.82,0-1.63-0.3-2.26-0.91l-0.51-0.49
				c-12.73-12.12-30.65-19.07-47.81-18.22c-1.8,0.11-3.33-1.3-3.42-3.1c-0.09-1.8,1.3-3.33,3.1-3.42
				c18.74-0.95,38.63,6.69,52.63,20.01l0.54,0.52c1.3,1.25,1.34,3.31,0.08,4.61C2209.65,1091.61,2208.8,1091.94,2207.94,1091.94z
				 M2225.05,1063.99c-0.07,0-0.13,0-0.2-0.01c-1.8-0.11-3.17-1.66-3.05-3.45c0.34-5.53,0.56-11.41,0.69-18.49
				c0.14-7.04,0.21-14.09,0.21-21.15c0-5.33-0.04-10.66-0.12-16c-0.03-1.8,1.41-3.28,3.21-3.31c0.02,0,0.04,0,0.05,0
				c1.78,0,3.23,1.43,3.26,3.21c0.08,5.37,0.12,10.74,0.12,16.1c0,7.1-0.07,14.2-0.21,21.28c-0.14,7.17-0.36,13.13-0.71,18.76
				C2228.19,1062.66,2226.76,1063.99,2225.05,1063.99z M2223.32,952.25c-1.69,0-3.12-1.3-3.25-3.02c-1.43-18.9-3.49-37.52-6.1-55.33
				c-0.26-1.78,0.97-3.44,2.76-3.7c1.79-0.27,3.44,0.97,3.7,2.75c2.64,17.96,4.71,36.73,6.15,55.79c0.14,1.8-1.21,3.36-3,3.5
				C2223.49,952.25,2223.41,952.25,2223.32,952.25z M2206.87,841.76c-1.48,0-2.82-1.02-3.17-2.53
				c-4.26-18.39-9.31-36.39-15.02-53.51c-0.57-1.71,0.35-3.56,2.06-4.12c1.71-0.57,3.56,0.35,4.12,2.06
				c5.77,17.31,10.88,35.51,15.19,54.1c0.41,1.75-0.69,3.51-2.44,3.91C2207.36,841.73,2207.11,841.76,2206.87,841.76z
				 M2171.36,735.94c-1.24,0-2.42-0.71-2.97-1.91c-3.4-7.46-7.01-14.86-10.72-22.01c-4.74-9.13-9.87-18.22-15.26-27
				c-0.94-1.54-0.46-3.54,1.07-4.49c1.54-0.94,3.55-0.46,4.49,1.07c5.47,8.91,10.68,18.13,15.48,27.4
				c3.76,7.25,7.41,14.75,10.86,22.31c0.75,1.64,0.03,3.57-1.61,4.32C2172.27,735.85,2171.82,735.94,2171.36,735.94z
				 M2112.98,640.94c-0.95,0-1.9-0.41-2.54-1.21c-11.69-14.47-24.36-28.17-37.63-40.7c-1.31-1.24-1.37-3.3-0.13-4.61
				c1.24-1.31,3.3-1.37,4.61-0.13c13.49,12.73,26.36,26.64,38.23,41.34c1.13,1.4,0.91,3.46-0.49,4.59
				C2114.42,640.7,2113.7,640.94,2112.98,640.94z M1438.32,584.3c-1.74,0-3.18-1.38-3.25-3.13c-0.07-1.8,1.33-3.32,3.13-3.39
				c17.59-0.7,35.64-2.53,55.2-5.61c1.81-0.28,3.45,0.94,3.73,2.71c0.28,1.78-0.94,3.45-2.72,3.73
				c-19.81,3.12-38.11,4.98-55.96,5.69C1438.4,584.3,1438.36,584.3,1438.32,584.3z M1382.5,582.36c-0.12,0-0.25-0.01-0.37-0.02
				c-17.91-2.05-36.52-5.63-55.31-10.63c-1.74-0.46-2.77-2.25-2.31-3.99c0.47-1.74,2.26-2.77,3.99-2.31
				c18.48,4.92,36.78,8.44,54.37,10.45c1.79,0.2,3.07,1.82,2.87,3.61C1385.54,581.14,1384.13,582.36,1382.5,582.36z M1548.71,567.67
				c-1.48,0-2.81-1.01-3.17-2.51c-0.41-1.75,0.67-3.51,2.42-3.93c15.62-3.7,32.78-8.16,53.98-14.06c1.73-0.48,3.53,0.53,4.01,2.27
				c0.48,1.74-0.53,3.53-2.27,4.02c-21.29,5.92-38.53,10.4-54.23,14.12C1549.21,567.65,1548.96,567.67,1548.71,567.67z
				 M2031.77,564.57c-0.64,0-1.3-0.19-1.87-0.59c-15.34-10.75-31.38-20.2-47.67-28.08c-1.62-0.78-2.3-2.74-1.51-4.36
				c0.78-1.62,2.74-2.3,4.35-1.52c16.6,8.03,32.94,17.66,48.57,28.61c1.47,1.03,1.83,3.07,0.8,4.54
				C2033.81,564.09,2032.8,564.57,2031.77,564.57z M1274.6,554.33c-0.39,0-0.79-0.07-1.18-0.22c-16.05-6.22-32.9-13.51-51.51-22.27
				c-1.63-0.77-2.33-2.71-1.56-4.34c0.77-1.63,2.7-2.33,4.34-1.56c18.47,8.7,35.18,15.93,51.09,22.09c1.68,0.65,2.51,2.54,1.86,4.22
				C1277.14,553.54,1275.9,554.33,1274.6,554.33z M1656.63,538.37c-1.43,0-2.73-0.94-3.14-2.38c-0.49-1.73,0.52-3.54,2.25-4.02
				c14.9-4.19,34.52-9.63,54.12-14.47c1.74-0.43,3.52,0.63,3.95,2.38c0.43,1.75-0.64,3.52-2.38,3.95
				c-19.5,4.82-39.06,10.23-53.91,14.42C1657.22,538.33,1656.92,538.37,1656.63,538.37z M1931.5,516.36c-0.29,0-0.59-0.04-0.89-0.12
				c-9.65-2.72-19.49-4.95-29.26-6.65c-8.18-1.42-16.61-2.54-25.06-3.32c-1.79-0.17-3.12-1.75-2.95-3.55
				c0.17-1.79,1.78-3.1,3.55-2.95c8.62,0.8,17.23,1.94,25.58,3.39c9.98,1.74,20.04,4.02,29.91,6.8c1.73,0.49,2.74,2.29,2.26,4.02
				C1934.23,515.42,1932.92,516.36,1931.5,516.36z M1765.29,512.25c-1.56,0-2.93-1.12-3.21-2.7c-0.31-1.77,0.88-3.46,2.66-3.77
				c19.84-3.45,38.1-5.65,55.82-6.72c1.77-0.12,3.34,1.26,3.45,3.06c0.11,1.8-1.26,3.34-3.06,3.45c-17.47,1.06-35.49,3.23-55.1,6.64
				C1765.66,512.24,1765.47,512.25,1765.29,512.25z M1173.2,507.33c-0.5,0-1.01-0.12-1.48-0.36c-8.09-4.15-16.16-8.34-24.23-12.52
				c-8.48-4.4-16.96-8.79-25.44-13.14c-1.6-0.82-2.23-2.79-1.41-4.39c0.82-1.6,2.78-2.24,4.39-1.41
				c8.49,4.35,16.98,8.75,25.47,13.15c8.06,4.18,16.13,8.36,24.21,12.51c1.6,0.82,2.23,2.79,1.41,4.39
				C1175.52,506.68,1174.39,507.33,1173.2,507.33z M1073.38,456.96c-0.45,0-0.92-0.1-1.36-0.3c-17.58-8.11-34.85-15.33-51.35-21.44
				c-1.69-0.63-2.55-2.5-1.93-4.19c0.63-1.69,2.5-2.55,4.19-1.93c16.66,6.17,34.09,13.45,51.82,21.63c1.63,0.76,2.35,2.69,1.59,4.33
				C1075.8,456.26,1074.62,456.96,1073.38,456.96z M968.51,418.61c-0.27,0-0.54-0.03-0.82-0.1c-18.72-4.8-37.04-8.24-54.46-10.2
				c-1.79-0.2-3.08-1.82-2.88-3.61c0.2-1.79,1.77-3.08,3.6-2.87c17.72,2,36.34,5.49,55.36,10.36c1.74,0.45,2.8,2.22,2.35,3.97
				C971.28,417.63,969.96,418.61,968.51,418.61z M802.92,417.04c-1.39,0-2.69-0.9-3.12-2.3c-0.53-1.72,0.43-3.55,2.15-4.08
				c17.56-5.4,36.26-8.84,55.59-10.22c1.89-0.11,3.36,1.23,3.49,3.02c0.13,1.8-1.23,3.36-3.02,3.49
				c-18.84,1.34-37.05,4.69-54.14,9.95C803.56,416.99,803.24,417.04,802.92,417.04z" class="color060f11 svgShape"></path><path fill="#ffdc73" d="M599.83,314.27l287.83,78.42l2.61-9.11c1.17-4.08,0.49-8.48-1.87-12.02l-26.03-49.39
					c-2.99-4.48-7.93-7.27-13.32-7.54L599.83,314.27z" class="colorff73ed svgShape"></path><path fill="#231f13" d="M599.83,314.27l286.38,89.09l4.06-19.78c1.17-4.08,0.49-8.48-1.87-12.02L599.83,314.27z" class="color141323 svgShape"></path><path fill="#f4cf5d" d="M599.83,314.27l191.29,172.96c8.23,7.44,20.89,6.98,28.55-1.05l34.78-36.39
					C757.1,403.62,599.83,314.27,599.83,314.27z" class="colorf45de9 svgShape"></path><path fill="#ffdc73" d="M599.83,314.27c0,0,157.27,89.34,254.62,135.53c40.24,19.08,70.24,30.8,74.66,25.77
					c12.21-13.85-11.49-45.29-20.56-61.05c-2.22-3.85-5.86-6.67-10.15-7.84l-12.2-3.32L599.83,314.27z" class="colorff73ed svgShape"></path><g fill="#000000" class="color000000 svgShape"><path fill="#dcb84a" d="M1791.91,1852.86l-596.62,0c-84.34,0-151.86-68.37-150.81-152.7l14.98-1209.39
						c1.04-84.34,70.26-152.7,154.59-152.7l596.62,0c84.34,0,151.86,68.37,150.81,152.7l-14.98,1209.39
						C1945.46,1784.5,1876.24,1852.86,1791.91,1852.86z" class="color4a4ddc svgShape"></path><path fill="#110e06" d="M1195.29,1856.13c-41.66,0-80.64-16.23-109.74-45.69c-29.1-29.47-44.85-68.64-44.33-110.31l14.98-1209.39
						c1.07-85.98,71.88-155.92,157.85-155.92l596.62,0c41.66,0,80.64,16.23,109.74,45.69c29.1,29.47,44.85,68.64,44.33,110.31
						l-14.98,1209.39c-1.07,85.98-71.88,155.92-157.85,155.92L1195.29,1856.13z M1810.68,341.33l-596.62,0
						c-82.42,0-150.31,67.06-151.33,149.48l-14.98,1209.39c-0.49,39.91,14.58,77.43,42.45,105.65
						c27.87,28.21,65.19,43.75,105.1,43.75l596.62,0c82.42,0,150.31-67.06,151.33-149.48l14.98-1209.39
						c0.49-39.91-14.58-77.43-42.45-105.65C1887.91,356.87,1850.59,341.33,1810.68,341.33z" class="color060f11 svgShape"></path><path fill="#ffffff" d="M1888.81,502.8l-14.69,1185.36c-0.88,70.82-59.2,128.46-130.05,128.46l-536.32,0
						c-6.09,0-12.07-0.44-17.87-1.24c-4.77-0.67-9.43-1.58-13.99-2.76c-19.98-5.15-38.01-15-52.88-28.35
						c-7.92-7.06-14.91-15.13-20.82-23.98c-13.73-20.58-21.63-45.43-21.3-72.13l14.69-1185.36
						c0.88-70.85,59.23-128.46,130.05-128.46l536.32,0c11.84,0,23.22,1.61,34.04,4.61c4.96,1.34,9.75,2.99,14.43,4.94
						c19.54,8.04,36.6,20.82,49.75,36.92c2.75,3.33,5.3,6.79,7.67,10.42C1881.4,451.69,1889.13,476.33,1888.81,502.8z" class="colorffffff svgShape"></path><path fill="#110e06" d="M1744.07,1819.88h-536.32c-6.06,0-12.23-0.43-18.32-1.28c-4.96-0.7-9.79-1.65-14.35-2.83
						c-20.05-5.16-38.81-15.22-54.25-29.08c-8.08-7.21-15.27-15.49-21.35-24.59c-14.62-21.91-22.18-47.49-21.85-73.98l14.69-1185.36
						c0.9-72.61,60.7-131.68,133.31-131.68h536.32c11.83,0,23.57,1.59,34.91,4.72c4.99,1.35,9.98,3.06,14.82,5.08
						c19.8,8.14,37.45,21.24,51.02,37.87c2.79,3.38,5.44,6.98,7.88,10.7c14.39,21.69,21.83,47.07,21.5,73.38l-14.69,1185.36
						C1876.48,1760.81,1816.68,1819.88,1744.07,1819.88z M1225.62,377.61c-69.06,0-125.93,56.18-126.79,125.23l-14.69,1185.36
						c-0.31,25.17,6.86,49.47,20.75,70.28c5.77,8.64,12.6,16.5,20.28,23.35c14.67,13.17,32.48,22.72,51.52,27.62
						c4.33,1.12,8.92,2.02,13.63,2.69c5.79,0.8,11.65,1.21,17.42,1.21h536.32c69.06,0,125.93-56.18,126.79-125.24l14.69-1185.36
						l3.26,0.04l-3.26-0.04c0.31-25-6.76-49.11-20.43-69.71c-2.31-3.54-4.82-6.95-7.47-10.15c-12.91-15.81-29.66-28.25-48.47-35.98
						c-4.59-1.91-9.31-3.53-14.05-4.81c-10.79-2.98-21.95-4.49-33.19-4.49H1225.62z" class="color060f11 svgShape"></path><path fill="#cea836" d="M1972.51,735.97l-2.17,174.9c-0.19,15.7-13.06,28.41-28.77,28.41c-15.67,0-28.22-12.71-28.03-28.41
						l2.17-174.9c0.19-15.67,13.06-28.38,28.73-28.38c7.87,0,14.93,3.16,20.01,8.31C1969.5,721.04,1972.6,728.14,1972.51,735.97z" class="color363ece svgShape"></path><path fill="#110e06" d="M1941.57,942.54c-8.45,0-16.36-3.29-22.27-9.28c-5.92-5.99-9.12-13.96-9.02-22.44l2.17-174.9
						c0.22-17.43,14.57-31.6,32-31.6c8.49,0,16.42,3.29,22.33,9.28c5.91,6.03,9.1,13.98,8.99,22.41l-2.17,174.89
						C1973.38,928.35,1959.01,942.54,1941.57,942.54z M1944.44,710.85c-13.87,0-25.3,11.29-25.47,25.16l-2.17,174.89
						c-0.08,6.72,2.45,13.03,7.14,17.77c4.67,4.73,10.93,7.34,17.63,7.34c13.89,0,25.33-11.3,25.51-25.2l2.17-174.89c0,0,0,0,0,0
						c0.08-6.68-2.45-12.98-7.12-17.75C1957.46,713.46,1951.18,710.85,1944.44,710.85z" class="color060f11 svgShape"></path><line x1="1916.63" x2="1971.38" y1="827.09" y2="827.09" fill="#141323"></line><path fill="#110e06" d="M1971.38,830.35h-54.74c-1.8,0-3.26-1.46-3.26-3.26c0-1.8,1.46-3.26,3.26-3.26h54.74
						c1.8,0,3.26,1.46,3.26,3.26C1974.64,828.89,1973.18,830.35,1971.38,830.35z" class="color060f11 svgShape"></path><path fill="#231f13" d="M1565.44,432.99c-0.07,5.37-2.3,10.23-5.85,13.74c-3.58,3.54-8.47,5.71-13.84,5.71l-83.23,0
						c-10.74,0-19.34-8.7-19.21-19.45c0.07-5.37,2.3-10.23,5.85-13.74c3.58-3.51,8.46-5.68,13.84-5.68l83.23,0
						C1556.98,413.57,1565.57,422.27,1565.44,432.99z" class="color141323 svgShape"></path><path fill="#ffffff" d="M1759.64,810.31c0,56.53-17.52,108.95-47.4,152.13c-20.64,29.82-47.15,55.18-77.82,74.46
							c-3.26,2.06-6.58,4.07-9.94,5.97c-39.06,22.29-84.25,35-132.4,35c-46.44,0-90.12-11.85-128.18-32.69
							c-0.9-0.45-1.81-0.95-2.71-1.46c-34.59-19.48-64.47-46.39-87.36-78.63c-31.03-43.68-49.31-97.1-49.31-154.79
							c0-147.76,119.8-267.56,267.56-267.56S1759.64,662.55,1759.64,810.31z" class="colorffffff svgShape"></path><path fill="#ffe9a4" d="M1410.94 868.51l-47.05 176.68c-.9-.45-1.81-.95-2.71-1.46-34.59-19.48-56.18-35.32-79.08-67.55l36-105.01L1410.94 868.51zM1712.24 962.45c-20.64 29.82-47.15 55.18-77.82 74.46l-34.94-100.42 91.42-29.12L1712.24 962.45z" class="colorffc1a4 svgShape"></path><path fill="#060606" d="M1593.22,681.01c0,0,48.88,70.13,31.35,138.15s-151.04,73.79-177.45-35.57
							c-26.41-109.35,14.5-160.78,44.85-166.84c38.28-7.64,53.72,5.22,68.57,17.76C1575.38,647.05,1593.22,681.01,1593.22,681.01z" class="color060606 svgShape"></path><path fill="#ffc000" d="M1624.47,1042.87c-39.05,22.28-84.24,35.01-132.41,35.01c-47.54,0-92.17-12.41-130.87-34.16l49-259.38
							L1596,797.54L1624.47,1042.87z" class="colorff452d svgShape"></path><path fill="#110e06" d="M1492.07,1081.15c-46.42,0-92.23-11.96-132.47-34.57c-85.34-47.94-138.36-138.46-138.36-236.26
							c0-149.34,121.49-270.83,270.83-270.83s270.83,121.49,270.83,270.83c0,97.06-52.42,187.26-136.81,235.39
							C1585.46,1068.89,1539.12,1081.15,1492.07,1081.15z M1492.07,546.01c-145.74,0-264.31,118.57-264.31,264.31
							c0,95.44,51.74,183.79,135.03,230.57c39.27,22.07,83.98,33.74,129.28,33.74c45.91,0,91.14-11.96,130.79-34.59
							c82.36-46.97,133.52-135,133.52-229.72C1756.38,664.58,1637.81,546.01,1492.07,546.01z" class="color060f11 svgShape"></path><path fill="#ffc000" d="M1453.94,787.46l-44.61,151.13l-123.53-53.52l48.59-81.63c15.41-17.98,38.9-26.93,62.37-23.74
																	L1453.94,787.46z" class="colorff452d svgShape"></path><path fill="#060606" d="M1434.89,592.64c0,0-34.45,18.99-30.24,66.77c4.21,47.77,64.74,18.62,65.18,17.02" class="color060606 svgShape"></path><circle cx="1587.03" cy="643.72" r="51.69" fill="#060606" class="color060606 svgShape"></circle><path fill="#ffe9a4" d="M1487,868.37c-67.4-3.91-29.92-48.34-15.99-74.01l13.13-57.99l65.67-15.13l-4.03,75.23
																							C1545.78,796.48,1555.81,872.36,1487,868.37z" class="colorffc1a4 svgShape"></path><path fill="#060606" d="M1476.01,772.28c0,0,31.92-3.3,43.65-20.32l-37.92-5L1476.01,772.28z" class="color060606 svgShape"></path><circle cx="1481.31" cy="676.92" r="82.2" fill="#ffe9a4" class="colorffc1a4 svgShape"></circle><path d="M1457.14 714.29c-.48 0-.97-.03-1.46-.09-3.09-.41-5.71-2.26-7.02-4.95-2.09-4.31-.45-9.16 1.43-13.33l8.41-18.66c.43-.94 1.54-1.35 2.46-.93.94.42 1.36 1.53.94 2.46l-8.41 18.66c-1.53 3.39-2.89 7.24-1.47 10.17.76 1.56 2.31 2.64 4.15 2.88 1.86.24 3.84-.28 5.75-.79 1.01-.27 2.02.33 2.28 1.32.26 1-.33 2.02-1.32 2.28C1461.12 713.78 1459.18 714.29 1457.14 714.29zM1474.16 728.9c-.19 0-.38 0-.58-.01-1.03-.02-1.85-.87-1.82-1.9.02-1.02.85-1.82 1.86-1.82.12 0 .34.01.51.01 7.8 0 15.67-4.05 20.18-10.41.6-.84 1.77-1.03 2.6-.44.84.6 1.04 1.76.44 2.6C1492.09 724.35 1483.24 728.9 1474.16 728.9z" fill="#000000" class="color000000 svgShape"></path><path fill="#060606" d="M1562.28,663.24c0,0-10.24,6.52-21.25,18.36c-14.77,15.89-12.9-15.42-21.37-16.95
																							c-29.66-5.37-69.19-6.46-94.32-29.05c-13.91-12.51-0.17-39.65,16.56-48.03c19.51-9.77,48.47-16.49,82.01,0.68
																							C1566.61,610.13,1562.28,663.24,1562.28,663.24z" class="color060606 svgShape"></path><g fill="#000000" class="color000000 svgShape"><path fill="#060606" d="M1486.64,685.1c-1.14,4.2-4.43,6.98-7.35,6.22c-2.93-0.8-4.41-4.84-3.3-9.03
																						c1.13-4.24,4.42-7.02,7.35-6.22C1486.26,676.83,1487.74,680.88,1486.64,685.1z" class="color060606 svgShape"></path></g><g fill="#000000" class="color000000 svgShape"><path fill="#060606" d="M1439.84,671.75c-1.14,4.2-4.43,6.98-7.35,6.22c-2.93-0.8-4.41-4.84-3.3-9.03
																						c1.13-4.24,4.42-7.02,7.35-6.22C1439.46,663.47,1440.94,667.52,1439.84,671.75z" class="color060606 svgShape"></path></g><g fill="#000000" class="color000000 svgShape"><circle cx="1557.91" cy="685.14" r="22.56" fill="#ffe9a4" class="colorffc1a4 svgShape"></circle></g><g fill="#000000" class="color000000 svgShape"><path fill="#ffffff" d="M1615.17,656.42c-0.54,0-1.07-0.23-1.43-0.67c-0.66-0.79-0.55-1.97,0.24-2.62
																						c6.07-5.03,9.62-13.05,9.25-20.92c-0.37-7.87-4.64-15.53-11.16-19.97c-0.85-0.58-1.07-1.74-0.49-2.59
																						c0.58-0.85,1.75-1.07,2.59-0.49c7.47,5.09,12.36,13.85,12.78,22.87c0.43,9.02-3.63,18.21-10.59,23.97
																						C1616.01,656.28,1615.59,656.42,1615.17,656.42z" class="colorffffff svgShape"></path></g><g fill="#000000" class="color000000 svgShape"><path fill="#ffffff" d="M1386.34,925.78c-0.08,0-0.16,0-0.24-0.02c-1.02-0.13-1.74-1.06-1.61-2.09l9.99-77.7
																	c0.13-1.02,1.1-1.75,2.09-1.61c1.02,0.13,1.74,1.06,1.61,2.09l-9.99,77.7
																	C1388.06,925.1,1387.26,925.78,1386.34,925.78z" class="colorffffff svgShape"></path></g><g fill="#000000" class="color000000 svgShape"><path fill="#ffc000" d="M1596.01,797.54c27.78,2.65,66.57,17.38,79.37,42.18c0.09,0.17,41.39,90.15,41.39,90.15
														l-105.67,46.31l-30.63-76.91c-11.69-24.25-11.22-52.6,1.28-76.44L1596.01,797.54z" class="colorff452d svgShape"></path></g><g fill="#000000" class="color000000 svgShape"><path fill="#ffffff" d="M1611.09,978.05c-0.74,0-1.45-0.45-1.73-1.18l-28.98-73.49c-0.38-0.96,0.09-2.04,1.05-2.42
														c0.95-0.37,2.04,0.09,2.42,1.05l28.98,73.49c0.38,0.96-0.09,2.04-1.05,2.42C1611.55,978,1611.32,978.05,1611.09,978.05
														z" class="colorffffff svgShape"></path></g><g fill="#000000" class="color000000 svgShape"><path fill="#ffffff" d="M1505.22,649.34c-23.47,0-46.54-9.37-63.37-25.73c-0.74-0.72-0.75-1.9-0.04-2.64
									c0.72-0.74,1.9-0.75,2.64-0.04c16.13,15.69,38.27,24.67,60.77,24.67c0.11,0,0.24,0.01,0.32,0c1.03,0,1.86,0.83,1.86,1.86
									C1507.41,648.61,1506.32,649.34,1505.22,649.34z" class="colorffffff svgShape"></path></g><g fill="#000000" class="color000000 svgShape"><path fill="#ffffff" d="M1505.15,633.45c-0.11,0-0.21-0.01-0.32-0.03c-8.03-1.37-15.71-4.09-22.82-8.09
									c-0.9-0.51-1.22-1.64-0.71-2.54c0.51-0.9,1.65-1.22,2.54-0.71c6.73,3.79,14.01,6.37,21.62,7.66
									c1.02,0.17,1.7,1.14,1.53,2.15C1506.83,632.8,1506.04,633.45,1505.15,633.45z" class="colorffffff svgShape"></path></g><g fill="#000000" class="color000000 svgShape"><path fill="#ffffff" d="M1608.71,788.32c-0.15,0-0.31-0.02-0.46-0.06c-1-0.25-1.6-1.27-1.34-2.27
							c6.69-26.15,0.68-55.74-15.67-77.22c-0.63-0.82-0.47-1.99,0.35-2.61c0.82-0.63,1.99-0.47,2.61,0.35
							c17.03,22.36,23.28,53.17,16.32,80.4C1610.3,787.76,1609.55,788.32,1608.71,788.32z" class="colorffffff svgShape"></path></g><g fill="#000000" class="color000000 svgShape"><path fill="#ffffff" d="M1584.67,788.66c-0.29,0-0.58-0.06-0.84-0.2c-0.92-0.47-1.28-1.59-0.82-2.51
							c6.69-13.14,7.88-28.71,3.27-42.72c-0.32-0.98,0.21-2.03,1.19-2.35c0.97-0.32,2.03,0.21,2.35,1.19
							c4.92,14.95,3.65,31.56-3.49,45.58C1586,788.29,1585.35,788.66,1584.67,788.66z" class="colorffffff svgShape"></path></g><g fill="#000000" class="color000000 svgShape"><path fill="#110e06" d="M1759.64,1305.16h-549.83c-1.8,0-3.26-1.46-3.26-3.26v-124.96c0-1.8,1.46-3.26,3.26-3.26h549.83
					c1.8,0,3.26,1.46,3.26,3.26v124.96C1762.9,1303.7,1761.44,1305.16,1759.64,1305.16z M1213.08,1298.64h543.3V1180.2h-543.3
					V1298.64z" class="color060f11 svgShape"></path></g><g fill="#000000" class="color000000 svgShape"><path fill="#110e06" d="M1759.64,1492.54h-549.83c-1.8,0-3.26-1.46-3.26-3.26v-124.96c0-1.8,1.46-3.26,3.26-3.26h549.83
					c1.8,0,3.26,1.46,3.26,3.26v124.96C1762.9,1491.08,1761.44,1492.54,1759.64,1492.54z M1213.08,1486.02h543.3v-118.44h-543.3
					V1486.02z" class="color060f11 svgShape"></path></g><g fill="#000000" class="color000000 svgShape"><path fill="#f8e8b7" d="M1513.28,1223.81h-231.41c-7.1,0-12.86,5.76-12.86,12.86l0,0c0,7.1,5.76,12.86,12.86,12.86h231.41
					c7.1,0,12.86-5.76,12.86-12.86l0,0C1526.14,1229.57,1520.38,1223.81,1513.28,1223.81z" class="colorb7bef8 svgShape"></path></g><g fill="#000000" class="color000000 svgShape"><path fill="#f8e8b7" d="M1571.85,1236.67L1571.85,1236.67c0,7.1,5.76,12.86,12.86,12.86h84.75c7.1,0,12.86-5.76,12.86-12.86l0,0
					c0-7.1-5.76-12.86-12.86-12.86h-84.75C1577.61,1223.81,1571.85,1229.57,1571.85,1236.67z" class="colorb7bef8 svgShape"></path></g><g fill="#000000" class="color000000 svgShape"><circle cx="1318.86" cy="1426.79" r="17.14" fill="#f8e8b7" class="colorb7bef8 svgShape"></circle></g><g fill="#000000" class="color000000 svgShape"><circle cx="1382.98" cy="1426.79" r="17.14" fill="#f8e8b7" class="colorb7bef8 svgShape"></circle></g><g fill="#000000" class="color000000 svgShape"><circle cx="1447.1" cy="1426.79" r="17.14" fill="#f8e8b7" class="colorb7bef8 svgShape"></circle></g><g fill="#000000" class="color000000 svgShape"><circle cx="1511.22" cy="1426.79" r="17.14" fill="#f8e8b7" class="colorb7bef8 svgShape"></circle></g><g fill="#000000" class="color000000 svgShape"><circle cx="1575.34" cy="1426.79" r="17.14" fill="#f8e8b7" class="colorb7bef8 svgShape"></circle></g><g fill="#000000" class="color000000 svgShape"><circle cx="1639.46" cy="1426.79" r="17.14" fill="#f8e8b7" class="colorb7bef8 svgShape"></circle></g><g fill="#000000" class="color000000 svgShape"><path fill="#c09100" d="M1672.78,1614.66c0,18.95-7.68,36.1-20.07,48.52c-12.42,12.42-29.58,20.1-48.52,20.1h-257.36
					c-37.89,0-68.59-30.73-68.59-68.63c0-18.95,7.68-36.11,20.07-48.53c12.42-12.38,29.58-20.07,48.52-20.07h257.36
					C1642.09,1546.07,1672.78,1576.76,1672.78,1614.66z" class="color00c09a svgShape"></path><path fill="#110e06" d="M1604.19,1686.55h-257.36c-39.62,0-71.85-32.25-71.85-71.89c0-19.18,7.47-37.23,21.02-50.83
					c13.6-13.56,31.65-21.03,50.84-21.03h257.36c39.62,0,71.85,32.23,71.85,71.85c0,19.18-7.46,37.23-21.02,50.83
					C1641.44,1679.07,1623.39,1686.55,1604.19,1686.55z M1346.84,1549.33c-17.45,0-33.86,6.79-46.22,19.11
					c-12.32,12.36-19.11,28.77-19.11,46.22c0,36.04,29.31,65.37,65.33,65.37h257.36c17.46,0,33.87-6.8,46.22-19.15
					c12.32-12.36,19.11-28.78,19.11-46.22c0-36.02-29.31-65.33-65.33-65.33H1346.84z" class="color060f11 svgShape"></path></g><g fill="#000000" class="color000000 svgShape"><path fill="#ffffff" d="M1396.74 1640.61c0 .92-.04 1.7-.12 2.33-.08.63-.19 1.15-.35 1.57-.15.42-.35.72-.58.9-.23.18-.5.28-.81.28h-27.4c-1.02 0-1.87-.3-2.56-.9-.7-.6-1.04-1.58-1.04-2.93v-54.29c0-.31.1-.59.3-.83.2-.25.53-.45.99-.6.46-.15 1.09-.28 1.87-.37.78-.09 1.76-.14 2.93-.14 1.2 0 2.19.05 2.96.14.77.09 1.39.22 1.85.37.46.15.79.35.99.6.2.25.3.52.3.83v48.1h18.81c.31 0 .58.08.81.25.23.17.43.45.58.83.15.39.27.89.35 1.53C1396.7 1638.91 1396.74 1639.69 1396.74 1640.61zM1456.02 1615.11c0 4.96-.62 9.4-1.85 13.31-1.23 3.91-3.06 7.23-5.5 9.96-2.43 2.73-5.44 4.81-9.03 6.24-3.59 1.43-7.74 2.15-12.46 2.15-4.65 0-8.71-.61-12.17-1.83-3.46-1.22-6.35-3.07-8.66-5.57-2.31-2.5-4.04-5.67-5.2-9.52-1.16-3.85-1.73-8.41-1.73-13.68 0-4.84.62-9.19 1.85-13.05 1.23-3.87 3.06-7.15 5.5-9.86s5.45-4.79 9.03-6.24c3.59-1.45 7.76-2.17 12.5-2.17 4.53 0 8.52.6 11.99 1.8 3.47 1.2 6.36 3.05 8.69 5.55 2.33 2.49 4.08 5.65 5.27 9.45C1455.43 1605.45 1456.02 1609.93 1456.02 1615.11zM1443.27 1615.76c0-3.14-.25-6-.74-8.57-.49-2.57-1.33-4.77-2.52-6.61-1.19-1.83-2.77-3.25-4.74-4.25-1.97-1-4.44-1.5-7.39-1.5-2.99 0-5.49.56-7.49 1.69-2 1.12-3.62 2.63-4.85 4.51-1.23 1.88-2.1 4.07-2.61 6.58-.51 2.51-.76 5.17-.76 7.97 0 3.26.25 6.2.74 8.8.49 2.6 1.32 4.83 2.49 6.68 1.17 1.85 2.74 3.26 4.71 4.23 1.97.97 4.45 1.46 7.44 1.46 2.99 0 5.48-.56 7.48-1.66 2-1.11 3.62-2.62 4.85-4.53 1.23-1.91 2.1-4.14 2.61-6.68C1443.01 1621.32 1443.27 1618.62 1443.27 1615.76zM1514.19 1595.19c0 .89-.04 1.66-.11 2.31-.08.65-.19 1.16-.32 1.55-.14.38-.31.65-.51.81-.2.15-.44.23-.72.23-.4 0-1.04-.28-1.94-.83-.89-.55-2.08-1.15-3.56-1.8-1.48-.65-3.24-1.25-5.29-1.8-2.05-.55-4.43-.83-7.14-.83-2.9 0-5.51.5-7.85 1.5-2.34 1-4.35 2.42-6.01 4.25-1.66 1.83-2.94 4.04-3.83 6.61-.9 2.57-1.34 5.41-1.34 8.53 0 3.42.45 6.43 1.36 9.03.91 2.6 2.18 4.78 3.81 6.54 1.63 1.76 3.6 3.08 5.89 3.97 2.29.89 4.83 1.34 7.6 1.34 1.35 0 2.7-.15 4.02-.46 1.32-.31 2.56-.77 3.69-1.39v-13.86h-11.32c-.55 0-.99-.35-1.3-1.04-.31-.69-.46-1.87-.46-3.54 0-.86.04-1.59.11-2.17.08-.58.19-1.05.35-1.41.16-.35.34-.62.56-.79.21-.17.46-.25.74-.25h20.19c.49 0 .93.09 1.31.25.39.17.72.42 1.02.76.29.34.51.75.67 1.22.15.48.23 1.02.23 1.64v23.8c0 .92-.16 1.73-.48 2.43s-.99 1.24-1.99 1.64-2.24.82-3.72 1.25c-1.48.43-3.01.8-4.6 1.11-1.59.31-3.19.54-4.8.69-1.62.15-3.24.23-4.88.23-4.78 0-9.05-.69-12.82-2.06-3.77-1.37-6.97-3.36-9.59-5.96-2.62-2.6-4.62-5.78-6.01-9.52-1.39-3.74-2.08-7.99-2.08-12.73 0-4.9.74-9.29 2.22-13.19 1.48-3.9 3.57-7.21 6.29-9.93 2.71-2.73 5.98-4.81 9.82-6.26 3.84-1.45 8.11-2.17 12.82-2.17 2.59 0 4.94.18 7.07.53 2.13.35 3.98.79 5.57 1.29 1.59.51 2.9 1.06 3.95 1.64 1.04.59 1.78 1.09 2.19 1.53.41.43.71 1.04.9 1.83C1514.1 1592.49 1514.19 1593.65 1514.19 1595.19zM1538.73 1644.03c0 .31-.1.59-.3.83s-.53.45-.99.6c-.46.15-1.08.28-1.85.37-.77.09-1.75.14-2.96.14-1.17 0-2.15-.05-2.93-.14-.79-.09-1.41-.21-1.87-.37-.46-.15-.79-.35-.99-.6-.2-.25-.3-.52-.3-.83v-56.46c0-.31.1-.59.3-.83.2-.25.54-.45 1.02-.6.48-.15 1.1-.28 1.87-.37.77-.09 1.74-.14 2.91-.14 1.2 0 2.19.05 2.96.14.77.09 1.39.22 1.85.37.46.15.79.35.99.6.2.25.3.52.3.83V1644.03zM1601.06 1641.45c0 .71-.12 1.34-.37 1.89-.25.56-.58 1.02-.99 1.39-.41.37-.91.64-1.48.81-.57.17-1.15.25-1.73.25h-5.18c-1.08 0-2.01-.11-2.8-.32-.79-.21-1.51-.61-2.17-1.18-.66-.57-1.3-1.34-1.92-2.31-.62-.97-1.31-2.22-2.08-3.77l-14.88-27.95c-.86-1.66-1.74-3.46-2.63-5.38-.9-1.92-1.7-3.8-2.4-5.61h-.09c.12 2.22.21 4.43.28 6.63.06 2.2.09 4.47.09 6.82v31.28c0 .31-.09.59-.25.83-.17.25-.46.45-.88.62-.42.17-.98.3-1.69.39-.71.09-1.62.14-2.73.14-1.08 0-1.97-.05-2.68-.14-.71-.09-1.26-.22-1.66-.39-.4-.17-.68-.38-.83-.62-.15-.25-.23-.52-.23-.83v-53.74c0-1.45.42-2.53 1.27-3.26.85-.72 1.89-1.09 3.12-1.09h6.52c1.17 0 2.15.1 2.96.3.8.2 1.52.53 2.15.99.63.46 1.22 1.1 1.78 1.92.55.82 1.12 1.83 1.71 3.03l11.64 21.86c.68 1.32 1.35 2.63 2.01 3.9.66 1.28 1.3 2.56 1.91 3.84.62 1.28 1.22 2.53 1.81 3.77.58 1.23 1.15 2.47 1.71 3.7h.05c-.09-2.16-.16-4.4-.21-6.75-.05-2.34-.07-4.57-.07-6.7v-28.05c0-.31.09-.58.28-.83.19-.25.49-.46.92-.65.43-.18 1-.31 1.71-.39.71-.08 1.62-.12 2.73-.12 1.04 0 1.92.04 2.63.12.71.08 1.26.21 1.64.39.39.18.66.4.81.65.15.25.23.52.23.83V1641.45z" class="colorffffff svgShape"></path></g><g fill="#000000" class="color000000 svgShape"><path fill="#060606" d="M233.18,858.41c-6.8,27.28,8.75,56.59,31.93,72.46c23.18,15.88,52.35,20.38,80.43,20.22
										c53.32-0.26,102.31-23.83,151.16-45.16c202.32-88.35,90.4-319.83,52.79-329.66c-47.85-12.46-42.37-31.76-42.37-31.76
										c-33.83,10.77-79.27,39.94-105.01,63.54c-25.71,23.64-46.09,54.5-51.29,89.05c-2.39,15.81-1.66,32.27-7.15,47.32
										c-9.32,25.4-34.09,41.18-56.9,55.74C263.93,814.67,239.76,832.16,233.18,858.41z" class="color060606 svgShape"></path><path fill="#ffe9a4" d="M689.84,2031.12c49.95,33.41,99.45,62.87,141.4,28.09l-13.91-190.24l-132.52-5.85L689.84,2031.12z" class="colorffc1a4 svgShape"></path><polygon points="825.18 1984.75 689.24 2011.14 688.12 1972.74" fill="#000000" class="color000000 svgShape"></polygon><path fill="#dcb84a" d="M831.23,2056.3c0,0,10.04,23.77,29.78,30.88c19.74,7.1,72.47,16.65,80.08,34.59
													c7.61,17.94,5.18,59.76,5.18,59.76l-265.22-0.68l0.46-155.02c0,0,9.83-8.86,37.98,4.09
													C747.64,2042.88,783.72,2065.35,831.23,2056.3z" class="color4a4ddc svgShape"></path><path fill="#060606" d="M946.56,2159.47c0.28,12.19-0.28,22.06-0.28,22.06l-265.22-0.68l0.07-22.06L946.56,2159.47z" class="color060606 svgShape"></path><path d="M800.15 2079.19c-39.25 0-65.95-13.66-83.97-25.29-18.38-11.87-32.62-5.91-33.22-5.65-1.88.82-4.08-.03-4.91-1.91-.83-1.87 0-4.06 1.87-4.9.74-.33 18.36-7.97 40.3 6.2 22.56 14.58 59.47 32.47 119.18 19.74 2.01-.43 3.99.85 4.42 2.87.43 2.01-.85 3.99-2.86 4.42C826.04 2077.84 812.47 2079.19 800.15 2079.19zM833.41 2101.17c-.92 0-1.83-.33-2.55-1.01-1.5-1.41-1.57-3.77-.16-5.27l16.62-17.68c1.4-1.5 3.77-1.57 5.27-.16 1.5 1.41 1.57 3.77.16 5.27L836.13 2100C835.39 2100.78 834.4 2101.17 833.41 2101.17zM847.81 2108.72c-.92 0-1.83-.33-2.55-1.01-1.5-1.41-1.57-3.77-.16-5.27l16.62-17.68c1.4-1.5 3.77-1.57 5.27-.16 1.5 1.41 1.58 3.77.16 5.27l-16.62 17.68C849.79 2108.33 848.8 2108.72 847.81 2108.72zM862.2 2116.27c-.92 0-1.83-.33-2.55-1.01-1.5-1.41-1.57-3.77-.16-5.27l16.62-17.68c1.41-1.5 3.77-1.57 5.27-.16 1.5 1.41 1.57 3.77.16 5.27l-16.62 17.68C864.19 2115.87 863.2 2116.27 862.2 2116.27zM745.15 2162.71c-1.58 0-3.05-1.02-3.56-2.61-14.46-45.83-59.69-46.29-60.32-46.29 0 0-.01 0-.01 0-2.05 0-3.72-1.66-3.73-3.71-.01-2.06 1.66-3.73 3.72-3.74l0 0c.7 0 51.36.51 67.45 51.51.62 1.96-.47 4.06-2.43 4.68C745.9 2162.66 745.52 2162.71 745.15 2162.71z" fill="#000000" class="color000000 svgShape"></path><g fill="#000000" class="color000000 svgShape"><path fill="#ffe9a4" d="M294.59,1927.56c26.67,53.85,54.9,104.06,108.61,94.8l82.72-171.88l-111.98-71.09L294.59,1927.56z" class="colorffc1a4 svgShape"></path><polygon points="435.04 1954.78 304.03 1909.93 322.18 1876.08" fill="#000000" class="color000000 svgShape"></polygon><path fill="#dcb84a" d="M404.64,2019.83c0,0-3.14,25.61,10.44,41.61c13.58,15.99,54.54,50.54,52.2,69.89
													S442,2185.73,442,2185.73l-229.62-132.72L290,1918.83c0,0,12.93-2.78,30.89,22.47
													C338.84,1966.55,358.94,2004.01,404.64,2019.83z" class="color4a4ddc svgShape"></path><path fill="#060606" d="M453.24,2166.74c-5.83,10.71-11.24,18.98-11.24,18.98l-229.62-132.72l11.05-19.09L453.24,2166.74z" class="color060606 svgShape"></path><path d="M405.07 2040.77c-.38 0-.76-.06-1.14-.18-60.76-19.56-84.94-55.12-97.85-80.17-10.02-19.45-25.34-21.38-25.99-21.45-2.03-.23-3.52-2.06-3.3-4.1.21-2.04 2.03-3.53 4.07-3.32.8.08 19.89 2.23 31.85 25.45 12.3 23.87 35.38 57.78 93.51 76.49 1.96.63 3.04 2.73 2.41 4.69C408.11 2039.77 406.65 2040.77 405.07 2040.77zM386.03 2060.32c-1.6 0-3.08-1.04-3.57-2.65-.6-1.97.51-4.05 2.48-4.65l23.21-7.05c2-.61 4.05.52 4.65 2.48.6 1.97-.51 4.05-2.48 4.65l-23.21 7.05C386.75 2060.27 386.39 2060.32 386.03 2060.32zM394.76 2074.03c-1.6 0-3.08-1.04-3.57-2.65-.6-1.97.51-4.05 2.48-4.65l23.21-7.05c1.99-.6 4.05.52 4.65 2.48.6 1.97-.51 4.05-2.48 4.65l-23.21 7.05C395.48 2073.98 395.11 2074.03 394.76 2074.03zM403.48 2087.75c-1.6 0-3.08-1.04-3.57-2.65-.6-1.97.51-4.05 2.48-4.65l23.22-7.05c2-.6 4.05.52 4.65 2.48.6 1.97-.51 4.05-2.48 4.65l-23.22 7.05C404.2 2087.7 403.83 2087.75 403.48 2087.75zM278.85 2069.7c-.27 0-.53-.03-.8-.09-2.01-.44-3.28-2.43-2.84-4.44 10.28-46.88-27.63-69.26-29.25-70.19-1.78-1.02-2.4-3.3-1.38-5.08 1.02-1.78 3.28-2.41 5.08-1.39.44.25 44.3 25.94 32.83 78.26C282.1 2068.52 280.56 2069.7 278.85 2069.7z" fill="#000000" class="color000000 svgShape"></path></g><g fill="#000000" class="color000000 svgShape"><path fill="#ffe9a4" d="M1058.71,968.71l-197.94,111.32c-33.21,9.38-68.78,4.96-98.67-12.28l-59.82-34.5l-56.27-32.48
												l-75.64-43.62l127.19-91.27l51.58,32.18l68.47,42.7l173.34-77.54L1058.71,968.71z" class="colorffc1a4 svgShape"></path><polygon fill="#f7df94" points="749.14 898.06 702.28 1033.25 646.01 1000.77" class="colorf7b094 svgShape"></polygon><path fill="#ffc000" d="M562.81,810.95l61.4,5.43c17.72,1.57,34.71,7.75,49.29,17.94c33.81,23.63,80.19,55.39,79.87,56.36
												c-0.45,1.34-81.75,140.13-81.75,140.13l-135.6-94.58L562.81,810.95z" class="colorff452d svgShape"></path><path fill="#231f13" d="M699.84,1601.61l-217.08,394.52L283,1871.01l200.39-349.81l-83.3-399.8l222.88,45.16l90.34,315.52
													C724.77,1522.14,719.93,1565.11,699.84,1601.61z" class="color141323 svgShape"></path><polygon points="667 1682.94 578.63 1824.87 476.57 1525.21" fill="#000000" class="color000000 svgShape"></polygon><path fill="#ffffff" d="M439.19,1828.13c-0.56,0-1.13-0.15-1.65-0.45c-1.55-0.91-2.07-2.91-1.16-4.46l153.53-261.19
													c7.02-11.95,12.15-24.86,15.23-38.37l20.33-89.01c0.4-1.76,2.14-2.85,3.91-2.45c1.75,0.4,2.85,2.15,2.45,3.91
													l-20.33,89.01c-3.24,14.16-8.61,27.7-15.97,40.22L442,1826.52C441.4,1827.56,440.31,1828.13,439.19,1828.13z" class="colorffffff svgShape"></path><polygon points="678.62 1424.99 662.91 1435.37 603.56 1292.86 660.43 1340.55" fill="#000000" class="color000000 svgShape"></polygon><path fill="#231f13" d="M510.56,1156.95l245.27,358.38c29.1,42.51,47.16,91.6,52.57,142.83l42.82,326.06H632.06
													l-56.33-331.93l-181.3-237.25c-30.82-40.86-46.76-91.03-45.17-142.19l4.26-137.04L510.56,1156.95z" class="color141323 svgShape"></path><path fill="#ffffff" d="M668.39,1390.83c-1.04,0-2.06-0.5-2.69-1.42l-98.43-143.83c-1.02-1.49-0.64-3.52,0.85-4.53
													c1.49-1.02,3.52-0.64,4.53,0.85l98.43,143.83c1.02,1.49,0.64,3.52-0.85,4.53
													C669.66,1390.64,669.02,1390.83,668.39,1390.83z" class="colorffffff svgShape"></path><path fill="#ffc000" d="M574.92,811.54l-150-0.39c-44.05-0.11-80.47,34.3-82.83,78.29l-15.89,295.36h326.25
															l-17.15-310.65C634.55,840.74,608.28,813.5,574.92,811.54z" class="colorff452d svgShape"></path><path fill="#ffffff" d="M642.92 1015.62c-1.72 0-3.16-1.34-3.25-3.08l-7.63-138.2c-.1-1.8 1.28-3.34 3.08-3.44 1.65-.07 3.33 1.28 3.44 3.08l7.63 138.2c.1 1.8-1.28 3.34-3.08 3.44C643.04 1015.61 642.98 1015.62 642.92 1015.62zM418.02 1337.41c-.81 0-1.61-.3-2.25-.9-1.31-1.24-1.36-3.3-.12-4.61 10.54-11.11 17.5-25.59 19.59-40.77 2.09-15.18-.69-31-7.84-44.55-.84-1.59-.23-3.57 1.36-4.41 1.59-.84 3.57-.23 4.41 1.36 7.78 14.75 10.81 31.97 8.54 48.48-2.28 16.52-9.85 32.28-21.33 44.37C419.75 1337.07 418.89 1337.41 418.02 1337.41zM741.07 1886.33c-1.6 0-3-1.18-3.22-2.81l-33.62-241.03c-2.9-27.57-13.5-53.52-30.68-75.15l-159.86-201.2c-1.12-1.41-.88-3.46.53-4.58 1.4-1.12 3.46-.88 4.58.53l159.86 201.2c17.95 22.6 29.03 49.71 32.04 78.41l33.6 240.92c.25 1.78-.99 3.43-2.78 3.68C741.37 1886.32 741.22 1886.33 741.07 1886.33zM800.26 1909.76H671.81c-1.8 0-3.26-1.46-3.26-3.26 0-1.8 1.46-3.26 3.26-3.26h128.46c1.8 0 3.26 1.46 3.26 3.26C803.52 1908.3 802.07 1909.76 800.26 1909.76z" class="colorffffff svgShape"></path><g fill="#000000" class="color000000 svgShape"><path fill="#ffffff" d="M474.48,1922.07c-0.58,0-1.17-0.16-1.7-0.48l-121.68-74.81c-1.54-0.94-2.01-2.95-1.07-4.49
													c0.94-1.53,2.95-2.01,4.48-1.07l121.68,74.81c1.54,0.94,2.01,2.95,1.07,4.49
													C476.64,1921.52,475.57,1922.07,474.48,1922.07z" class="colorffffff svgShape"></path></g><g fill="#000000" class="color000000 svgShape"><path fill="#ffffff" d="M675.15,983.4c-0.54,0-1.09-0.14-1.59-0.42c-1.57-0.88-2.13-2.87-1.24-4.44l46.55-82.72
												c0.89-1.57,2.88-2.12,4.44-1.24c1.57,0.88,2.13,2.87,1.24,4.44L678,981.74C677.4,982.8,676.29,983.4,675.15,983.4z" class="colorffffff svgShape"></path></g></g><g fill="#000000" class="color000000 svgShape"><path fill="#060606" d="M494.03,548.78c7.15-19.97-1.67-44.41-19.93-55.21c-18.26-10.79-43.93-6.74-57.98,9.15
											c-10.81,12.23-14.36,30.46-8.87,45.83c6.64,18.59,25.57,31.34,45.22,33.17c19.65,1.83,39.44-6.22,54.28-19.23" class="color060606 svgShape"></path><path fill="#ffe9a4" d="M531.12,884.58c-83.33,1.95-75.4-76.02-75.4-76.02l22.49-101.48l75,40.74l0.07,2.75l0.62,31.51
													l0.69,34.48C570.23,828.8,578.67,883.46,531.12,884.58z" class="colorffc1a4 svgShape"></path><path fill="#060606" d="M553.9,782.08c-18.76-7.86-34.44-28.76-34.44-28.76l33.83-2.75L553.9,782.08z" class="color060606 svgShape"></path><circle cx="552.51" cy="654.56" r="104.13" fill="#ffe9a4" class="colorffc1a4 svgShape"></circle><path fill="#060606" d="M502.23 627.05c0 0-8.02 36.32-25.51 41.31 0 0-.92-22.07-14.69-31.91s31.21-23.05 31.21-23.05M600.83 699.66c-1.47 0-2.88-.12-4.22-.24-1.79-.16-3.12-1.74-2.97-3.53.16-1.79 1.78-3.13 3.53-2.96 2.42.21 4.92.43 7.01-.22 1.95-.61 3.44-2.06 3.96-3.89 1.04-3.61-1.39-7.9-3.91-11.62l-14.53-21.48c-1.01-1.49-.62-3.52.87-4.53s3.52-.62 4.53.87l14.53 21.47c3.37 4.97 6.57 10.89 4.78 17.08-1.14 3.94-4.23 7.04-8.29 8.3C604.34 699.49 602.55 699.66 600.83 699.66zM563.34 720.75c-11.1 0-22-5.17-28.95-13.88-1.12-1.41-.89-3.46.52-4.58 1.42-1.13 3.47-.89 4.59.52 6.1 7.65 16.36 12.1 26.09 11.34 1.81-.16 3.37 1.2 3.51 3 .14 1.8-1.2 3.36-3 3.51C565.17 720.72 564.25 720.75 563.34 720.75z" class="color060606 svgShape"></path><path fill="#060606" d="M449.13,643.08c0,0,143.59,12.55,191.82-57.34c23.99-34.77-12.14-56.83-33.9-66.22
													c-25.38-10.96-89.1-9.91-130.28,14.22C424.33,564.46,449.13,643.08,449.13,643.08z" class="color060606 svgShape"></path><g fill="#000000" class="color000000 svgShape"><path fill="#060606" d="M559.35,664.63c1.75,5.23,6.11,8.52,9.74,7.34c3.64-1.22,5.23-6.44,3.52-11.66
												c-1.73-5.28-6.09-8.56-9.74-7.34C559.24,654.14,557.66,659.37,559.35,664.63z" class="color060606 svgShape"></path></g><g fill="#000000" class="color000000 svgShape"><path fill="#060606" d="M607.12,639.9c1.75,5.23,6.11,8.52,9.74,7.34c3.64-1.22,5.23-6.44,3.52-11.66
												c-1.73-5.28-6.09-8.56-9.74-7.34C607.01,629.41,605.43,634.63,607.12,639.9z" class="color060606 svgShape"></path></g><g fill="#000000" class="color000000 svgShape"><circle cx="452.2" cy="660.85" r="28.58" fill="#ffe9a4" class="colorffc1a4 svgShape"></circle></g><g fill="#000000" class="color000000 svgShape"><path fill="#060606" d="M489.35,544.56c5.06-8.48,6.79-18.25,5.45-27.37c-1.18-9.16-5.51-17.43-11.74-23.85
											c-12.52-13.1-31.55-17.89-49.28-14.61c-8.9,1.44-17.6,4.71-25.21,9.49c-7.72,4.68-14.04,11.22-18.44,19.03
											c-8.73,15.89-9.21,36.36-1.75,54.55c-11.63-15.93-14.82-38.97-6.07-58.41c4.21-9.82,11.8-18.03,20.46-24.03
											c8.8-5.92,18.77-9.76,29.15-11.65c10.41-1.62,21.32-1.27,31.53,2.07c10.17,3.42,19.48,9.45,26.14,17.82
											c3.35,4.13,6.12,8.77,7.94,13.77c1.8,5.02,2.74,10.28,2.72,15.49C500.19,527.23,496.42,537.58,489.35,544.56z" class="color060606 svgShape"></path></g><g fill="#000000" class="color000000 svgShape"><path fill="#ffffff" d="M520.58,620.59c-2.96,0-5.93-0.07-8.9-0.21c-1.8-0.09-3.19-1.61-3.1-3.41c0.09-1.8,1.76-3.2,3.41-3.1
											c20.74,0.98,41.23-1.59,60.9-7.65c14.56-4.49,25.79-10.15,34.32-17.31c10.16-8.52,16.52-19.65,17.45-30.53
											c0.15-1.8,1.67-3.12,3.53-2.97c1.79,0.15,3.12,1.73,2.97,3.53c-1.08,12.59-8.28,25.34-19.76,34.97
											c-9.21,7.73-21.18,13.79-36.59,18.54C557.23,617.86,539.03,620.59,520.58,620.59z" class="colorffffff svgShape"></path></g><g fill="#000000" class="color000000 svgShape"><path fill="#ffffff" d="M559.13,596.2c-1.26,0-2.46-0.74-3-1.97c-0.71-1.66,0.05-3.57,1.71-4.28
											c11.09-4.76,21.01-11.29,29.48-19.39c1.3-1.24,3.36-1.2,4.61,0.1c1.24,1.3,1.2,3.37-0.11,4.61
											c-9.04,8.64-19.61,15.59-31.41,20.67C560,596.11,559.56,596.2,559.13,596.2z" class="colorffffff svgShape"></path></g></g><g fill="#000000" class="color000000 svgShape"><path fill="#ffe9a4" d="M676.66,1111.26l62.38-12.69c6.02-4.86,14.84-3.9,19.71,2.12c3.98,4.98,4.05,11.88,0.48,16.9
							c-0.55,0.81-1.25,1.62-2.03,2.31l-26.71,17.91" class="colorffc1a4 svgShape"></path><path fill="#dcb84a" d="M809.51,1268.38l-82.44-10.44c-17.88-2.26-28.91-18.38-24.66-36.01l31.78-131.56
							c4.26-17.62,22.2-30.07,40.07-27.81l82.44,10.44c17.88,2.26,28.91,18.38,24.66,36.01l-31.78,131.56
							C845.33,1258.19,827.39,1270.64,809.51,1268.38z" class="color4a4ddc svgShape"></path><path fill="#ffe9a4" d="M790.85,1183.12c-0.23,2.14-0.91,4.04-1.94,5.64c-1.83,2.71-4.65,4.54-7.74,4.92
							c5.3,2.74,8.54,8.92,7.55,15.33c-0.34,2.14-1.11,4.08-2.17,5.76c-2.78,4.16-7.55,6.52-12.66,5.64
							c-0.76-0.11-1.18-0.19-1.18-0.19c15.82,6.25,3.93,26.38-5.45,22.99l-79.23-18.57l-0.04,0.34l-254.15-48.65
							c-35.23-6.75-63.44-33.17-72.48-67.9l-21.96-84.45l-17.61-67.71l-9.23-35.42l125.43-8.65l11.32,40.76l28.71,103.32
							l218.54,54.98l-0.46,6.25l80.37,26.08c8.69,1.49,14.98,9.95,14.34,19.33c-0.99,3.93-4.08,6.63-7.66,7.13
							C788.06,1171.92,791.38,1177.29,790.85,1183.12z" class="colorffc1a4 svgShape"></path><path fill="#060606" d="M767.87,1247.51c-1.11,0-2.23-0.17-3.35-0.54l-43.74-10.79c-1.75-0.43-2.82-2.2-2.38-3.95
							c0.43-1.75,2.2-2.82,3.95-2.38l43.97,10.86c3.43,1.11,8.15-2.41,9.75-7.05c1.09-3.17,1.02-7.45-5.52-9.81
							c-1.58-0.57-2.47-2.25-2.05-3.88c0.41-1.63,2.03-2.67,3.66-2.41l1.26,0.19c4.09,0.61,8.12-1.11,10.52-4.5
							c0.93-1.32,1.57-2.85,1.85-4.44c0.85-4.82-1.66-9.65-6.1-11.73c-1.31-0.61-2.06-2.01-1.84-3.44c0.22-1.43,1.35-2.54,2.78-2.74
							c2.46-0.34,4.7-1.7,6.14-3.74c0.85-1.2,1.4-2.64,1.59-4.15c0.48-4.22-1.98-8.16-5.97-9.56c-1.43-0.5-2.32-1.9-2.17-3.4
							c0.15-1.5,1.31-2.7,2.8-2.9c2.57-0.35,4.72-2.14,5.54-4.59c0.5-7.53-4.88-14.25-12.38-15.37c-1.78-0.27-3.01-1.93-2.74-3.71
							c0.27-1.78,1.9-3.02,3.71-2.74c11.02,1.64,18.88,11.63,17.89,22.72c-0.02,0.21-0.05,0.41-0.11,0.61
							c-0.79,2.76-2.42,5.12-4.59,6.82c3.32,3.27,5.07,7.96,4.51,12.88c-0.32,2.62-1.27,5.08-2.74,7.16
							c-1.17,1.65-2.64,3.04-4.32,4.11c3.65,3.91,5.4,9.4,4.44,14.89c-0.44,2.53-1.46,4.99-2.95,7.09
							c-2.15,3.03-5.12,5.22-8.46,6.39c2.73,3.89,2.74,8.58,1.44,12.36C780.08,1242.05,774.17,1247.51,767.87,1247.51z
							 M791.77,1163.18h0.04H791.77z" class="color060606 svgShape"></path><path fill="#060606" d="M771.65 1224.05c-.29 0-.59-.04-.88-.12l-37.18-10.44c-1.74-.49-2.74-2.29-2.26-4.02.49-1.73 2.28-2.75 4.02-2.26l37.18 10.44c1.74.49 2.74 2.29 2.26 4.02C774.38 1223.11 773.07 1224.05 771.65 1224.05zM781.07 1197.4c-.2 0-.4-.02-.6-.06l-29.76-5.52c-1.77-.33-2.94-2.03-2.61-3.8.32-1.77 2.01-2.95 3.8-2.61l29.76 5.52c1.77.33 2.94 2.03 2.61 3.8C783.98 1196.3 782.61 1197.4 781.07 1197.4zM783.46 1173.64c-.17 0-.35-.01-.54-.04l-25.4-4.19c-1.78-.29-2.98-1.97-2.69-3.75.29-1.78 1.91-2.99 3.75-2.69l25.4 4.19c1.78.29 2.98 1.97 2.69 3.75C786.41 1172.51 785.02 1173.64 783.46 1173.64z" class="color060606 svgShape"></path></g><g fill="#000000" class="color000000 svgShape"><polygon fill="#f7df94" points="449.32 952.96 339.4 1023.99 321.79 956.28" class="colorf7b094 svgShape"></polygon></g><g fill="#000000" class="color000000 svgShape"><path fill="#ffc000" d="M419.96,810.95l-46.27,3.22c-1.39,0.1-2.78,0.23-4.17,0.41c-46.1,5.73-76.96,50.58-68.43,96.24
						l14.39,76.99l148.93-38.77L419.96,810.95z" class="colorff452d svgShape"></path></g><g fill="#000000" class="color000000 svgShape"><path fill="#ffffff" d="M339.46,953.56c-1.4,0-2.7-0.91-3.13-2.33c-0.51-1.73,0.47-3.54,2.19-4.06l78.57-23.47
						c1.71-0.52,3.54,0.46,4.06,2.19c0.51,1.73-0.47,3.54-2.19,4.06l-78.57,23.47C340.08,953.51,339.77,953.56,339.46,953.56z" class="colorffffff svgShape"></path></g><g fill="#000000" class="color000000 svgShape"><path fill="#ffffff" d="M464.41,952.29c-1.38,0-2.66-0.88-3.1-2.26l-24.11-74.88c-0.55-1.71,0.39-3.55,2.1-4.1
						c1.73-0.55,3.56,0.39,4.11,2.11l24.11,74.88c0.55,1.71-0.39,3.55-2.1,4.1C465.08,952.24,464.74,952.29,464.41,952.29z" class="colorffffff svgShape"></path></g><g fill="#000000" class="color000000 svgShape"><path fill="#ffe9a4" d="M1114.16,937.39c-0.47,0.36-0.95,0.67-1.53,1.02c-9.33,5.83-72.99,42.66-90.72,46.94l-48.03-101.3
						l66.56-81.12c1.71-6.04,7.06-10.19,13.27-10.39c1.65-0.06,3.14,0.14,4.59,0.55c6.58,1.94,11.17,8.5,10.19,15.8l-3.86,28.89
						l69.79-41.65c7.51-4.48,17.24-1.49,20.95,6.42v0c2.92,6.24,1.14,13.66-4.29,17.9l-46.88,36.6l0.13,0.06
						c0.2,0.08,0.58,0.32,1.07,0.65c3.13,2.23,10.81,9.45,1.72,23.42l-0.36,0.56c0,0,21.88,10.28,7.2,29.2
						C1113.95,910.94,1131.58,925.12,1114.16,937.39z" class="colorffc1a4 svgShape"></path><path fill="#ffe9a4" d="M1067.82,869.72c-3.07,2.28-10.08,8.54-6.47,16.1c3.27,6.91,12.06,10.36,16.64,11.73l0.79,2.18
							c-2.07,1.72-4.98,5.12-4.92,10.68c0.1,8.41,12.23,11.46,13.08,11.69c-0.69,0.51-12.34,9.14-3.37,18.82
							c5.37,5.82,29.47,3.65,39.06-13.03c9.6-16.7-7.51-22.87-7.51-22.87s6.59-6.29,6.83-13.13c0.23-6.89-8.97-13.05-8.97-13.05
							s9.31-7.41,6.75-15.92c-2.46-8.17-11.09-8.78-11.77-8.82" class="colorffc1a4 svgShape"></path><path fill="#060606" d="M1074.61 908.91c-.36 0-.72-.06-1.07-.18-1.7-.59-2.6-2.45-2.01-4.15.68-1.95 1.66-3.56 2.7-4.85-5.31-1.96-12.66-5.77-15.84-12.51-4.56-9.66 3.95-18.08 9.08-21.19 1.54-.93 3.55-.44 4.48 1.1.93 1.54.44 3.55-1.1 4.48-.09.06-9.75 6.07-6.56 12.82 3.74 7.92 17.11 10.63 17.25 10.66 1.38.27 2.43 1.4 2.61 2.79.18 1.39-.56 2.75-1.83 3.35 0 0-3.31 1.7-4.63 5.49C1077.23 908.07 1075.96 908.91 1074.61 908.91zM1083.56 944.18c-.88 0-1.75-.35-2.39-1.05-3.19-3.45-4.59-7.21-4.16-11.18.79-7.34 7.83-12.33 8.12-12.54 1.47-1.03 3.51-.67 4.54.81 1.03 1.48.67 3.51-.8 4.54-1.36.96-5 4.28-5.38 7.92-.21 2.03.6 4 2.47 6.03 1.22 1.32 1.14 3.39-.18 4.61C1085.14 943.89 1084.35 944.18 1083.56 944.18z" class="color060606 svgShape"></path><path fill="#060606" d="M1093.45,947.1c-5.47,0-9.91-1.4-12.28-3.96c-1.22-1.32-1.14-3.38,0.18-4.61
							c1.33-1.22,3.38-1.14,4.61,0.18c0.98,1.05,4.62,2.37,10.73,1.68c7.75-0.87,17.89-5.05,23.11-14.14
							c2.42-4.21,3.08-7.91,1.95-10.98c-1.81-4.92-7.67-7.16-7.73-7.18c-1.06-0.38-1.85-1.29-2.08-2.39
							c-0.24-1.1,0.11-2.25,0.92-3.03c1.57-1.51,5.66-6.42,5.82-10.92c0.14-4.09-5.52-8.85-7.52-10.2
							c-0.86-0.58-1.39-1.54-1.44-2.57c-0.04-1.04,0.41-2.03,1.22-2.68c0.07-0.06,7.53-6.19,5.66-12.46
							c-1.83-6.1-8.52-6.48-8.81-6.5c-1.79-0.08-3.19-1.6-3.12-3.39c0.07-1.79,1.68-3.16,3.36-3.13
							c0.47,0.02,11.64,0.51,14.82,11.15c2.1,7.03-1.91,13.19-4.94,16.61c3.16,2.8,7.49,7.7,7.29,13.4
							c-0.17,4.79-2.77,9.2-4.92,12.06c2.69,1.73,6,4.63,7.6,8.98c1.82,4.97,1.01,10.52-2.42,16.48
							c-6.44,11.2-18.7,16.32-28.04,17.37C1096.04,947.02,1094.72,947.1,1093.45,947.1z" class="color060606 svgShape"></path><path fill="#060606" d="M1099.11 917.1c-1.36 0-2.63-.86-3.09-2.21-.58-1.71.33-3.56 2.04-4.14 6.84-2.33 15.2-8.47 15.29-8.53 1.44-1.07 3.49-.76 4.56.68 1.07 1.45.76 3.49-.68 4.56-.37.28-9.25 6.8-17.07 9.46C1099.82 917.04 1099.46 917.1 1099.11 917.1zM1089.46 893.19c-1.39 0-2.68-.9-3.12-2.3-.53-1.72.43-3.55 2.15-4.08 7.56-2.34 22.74-10.73 22.9-10.81 1.57-.87 3.56-.3 4.43 1.27.87 1.58.3 3.56-1.27 4.43-.64.36-15.92 8.8-24.13 11.34C1090.11 893.14 1089.78 893.19 1089.46 893.19zM1084.5 866.48c-1.67 0-3.1-1.28-3.25-2.98-.15-1.79 1.18-3.37 2.97-3.53 5.66-.49 17.91-6.5 22.15-8.77 1.58-.85 3.56-.25 4.41 1.33.85 1.59.25 3.56-1.34 4.41-1.68.9-16.65 8.82-24.67 9.52C1084.69 866.48 1084.6 866.48 1084.5 866.48z" class="color060606 svgShape"></path></g></g><g fill="#000000" class="color000000 svgShape"><path fill="#ffffff" d="M2284.36,546.36c0,0-43.99,139.79-192.06,147.17c-117.14-90.84-73.15-230.63-73.15-230.63
				c106.25-8.68,158.04-39.11,158.04-39.11S2202.22,478.39,2284.36,546.36z" class="colorffffff svgShape"></path><path fill="#110e06" d="M2092.3,696.79c-0.72,0-1.43-0.24-2-0.68c-117.58-91.17-74.71-232.77-74.26-234.19
				c0.4-1.26,1.53-2.16,2.85-2.27c104.12-8.51,156.14-38.37,156.66-38.67c0.79-0.46,1.75-0.57,2.63-0.3
				c0.88,0.28,1.6,0.91,1.98,1.75c0.25,0.54,25.79,54.82,106.29,121.42c1.02,0.85,1.43,2.23,1.03,3.49
				c-0.45,1.42-46.4,142.05-195.01,149.45C2092.41,696.78,2092.36,696.79,2092.3,696.79z M2021.67,465.95
				c-4.72,17.58-33.43,141.87,71.67,224.25c133.35-7.34,181-125.67,187.19-142.78c-70.39-58.65-98.23-106.62-104.76-119.15
				C2163.25,434.8,2112.95,458.18,2021.67,465.95z" class="color060f11 svgShape"></path></g><g fill="#000000" class="color000000 svgShape"><circle cx="2133.76" cy="562.42" r="68.98" fill="#c09100" class="color00c09a svgShape"></circle></g><g fill="#000000" class="color000000 svgShape"><path fill="#ffffff" d="M2118.2,582.7c-2.09,0-4.08-1.17-5.04-3.18l-8.39-17.5c-1.34-2.78-0.16-6.12,2.62-7.46
				c2.79-1.33,6.13-0.16,7.46,2.63l5.97,12.46l43.47-20.83c2.78-1.33,6.13-0.16,7.46,2.63c1.34,2.79,0.16,6.12-2.62,7.46
				l-48.52,23.24C2119.83,582.52,2119.01,582.7,2118.2,582.7z" class="colorffffff svgShape"></path></g></g></svg>