<svg xmlns="http://www.w3.org/2000/svg" enable-background="new 0 0 850 850" viewBox="0 0 850 850" id="girlisresettingthepasswordonthescreen"><g fill="#000000" class="color000000 svgShape"><g fill="#000000" class="color000000 svgShape"><g fill="#000000" class="color000000 svgShape"><g fill="#000000" class="color000000 svgShape"><g fill="#000000" class="color000000 svgShape"><g fill="#000000" class="color000000 svgShape"><g fill="#000000" class="color000000 svgShape"><rect width="321.06" height="412.05" x="469.75" y="261.38" fill="#ffffff" class="colorffffff svgShape"></rect></g></g><g fill="#000000" class="color000000 svgShape"><g fill="#000000" class="color000000 svgShape"><g fill="#000000" class="color000000 svgShape"><path fill="#383426" d="M790.82,673.44c0-2.91-0.13-167.49-0.33-412.05l0.33,0.33c-95.86,0.01-205.31,0.02-321.03,0.04h-0.04
									l0.37-0.37c-0.02,152.85-0.05,294.76-0.06,412.05l-0.3-0.3C663.56,673.31,788.29,673.43,790.82,673.44
									c-2.53,0-127.26,0.12-321.06,0.3l-0.3,0v-0.31c-0.02-117.29-0.04-259.2-0.06-412.05v-0.37h0.37h0.04
									c115.71,0.01,225.17,0.03,321.03,0.04h0.33l0,0.33C790.95,505.94,790.82,670.53,790.82,673.44z" class="color263238 svgShape"></path></g></g></g></g><g fill="#000000" class="color000000 svgShape"><g fill="#000000" class="color000000 svgShape"><g fill="#000000" class="color000000 svgShape"><g fill="#000000" class="color000000 svgShape"><path fill="#ebebeb" d="M757.67,463.14H503.89c-1.14,0-2.06-0.92-2.06-2.06v-40.44c0-1.14,0.92-2.06,2.06-2.06h253.78
									c1.14,0,2.06,0.92,2.06,2.06v40.44C759.73,462.22,758.81,463.14,757.67,463.14z" class="colorebebeb svgShape"></path></g></g><g fill="#000000" class="color000000 svgShape"><g fill="#000000" class="color000000 svgShape"><path fill="#ebebeb" d="M757.93,524.32H504.14c-1.14,0-2.06-0.92-2.06-2.06v-40.44c0-1.14,0.92-2.06,2.06-2.06h253.78
									c1.14,0,2.06,0.92,2.06,2.06v40.44C759.98,523.4,759.06,524.32,757.93,524.32z" class="colorebebeb svgShape"></path></g></g><g fill="#000000" class="color000000 svgShape"><g fill="#000000" class="color000000 svgShape"><path fill="#383426" d="M530,438.29c0,2.24-1.62,3.59-4.3,3.59h-2.55V445h-1.47v-10.3h4.02C528.38,434.7,530,436.06,530,438.29
									z M528.53,438.29c0-1.47-0.99-2.31-2.87-2.31h-2.5v4.62h2.5C527.54,440.6,528.53,439.76,528.53,438.29z" class="color263238 svgShape"></path></g><g fill="#000000" class="color000000 svgShape"><path fill="#383426" d="M538.06,440.29V445h-1.34v-1.03c-0.47,0.71-1.34,1.12-2.56,1.12c-1.77,0-2.88-0.94-2.88-2.3
									c0-1.25,0.81-2.28,3.14-2.28h2.24v-0.28c0-1.19-0.69-1.88-2.09-1.88c-0.93,0-1.87,0.32-2.47,0.84l-0.59-1.06
									c0.81-0.65,1.97-1,3.22-1C536.85,437.13,538.06,438.16,538.06,440.29z M536.64,442.62v-1.09h-2.18c-1.4,0-1.8,0.54-1.8,1.21
									c0,0.78,0.65,1.27,1.72,1.27C535.45,444,536.29,443.52,536.64,442.62z" class="color263238 svgShape"></path></g><g fill="#000000" class="color000000 svgShape"><path fill="#383426" d="M539.69,444.18l0.59-1.12c0.66,0.47,1.72,0.81,2.74,0.81c1.31,0,1.86-0.4,1.86-1.06
									c0-1.75-4.93-0.24-4.93-3.34c0-1.4,1.25-2.34,3.25-2.34c1.02,0,2.16,0.26,2.84,0.71l-0.6,1.12
									c-0.71-0.46-1.49-0.62-2.25-0.62c-1.24,0-1.84,0.46-1.84,1.07c0,1.84,4.95,0.34,4.95,3.37c0,1.41-1.3,2.31-3.37,2.31
									C541.61,445.09,540.33,444.69,539.69,444.18z" class="color263238 svgShape"></path></g><g fill="#000000" class="color000000 svgShape"><path fill="#383426" d="M547.06,444.18l0.59-1.12c0.66,0.47,1.72,0.81,2.74,0.81c1.31,0,1.85-0.4,1.85-1.06
									c0-1.75-4.93-0.24-4.93-3.34c0-1.4,1.25-2.34,3.25-2.34c1.02,0,2.16,0.26,2.84,0.71l-0.6,1.12
									c-0.71-0.46-1.49-0.62-2.25-0.62c-1.24,0-1.84,0.46-1.84,1.07c0,1.84,4.95,0.34,4.95,3.37c0,1.41-1.3,2.31-3.37,2.31
									C548.98,445.09,547.7,444.69,547.06,444.18z" class="color263238 svgShape"></path></g><g fill="#000000" class="color000000 svgShape"><path fill="#383426" d="M567.07,437.2l-2.91,7.8h-1.35l-2.25-5.92l-2.28,5.92h-1.35l-2.9-7.8h1.34l2.27,6.21l2.35-6.21h1.19
									l2.31,6.24l2.33-6.24H567.07z" class="color263238 svgShape"></path></g><g fill="#000000" class="color000000 svgShape"><path fill="#383426" d="M567.55,441.1c0-2.33,1.72-3.97,4.06-3.97c2.34,0,4.05,1.65,4.05,3.97c0,2.33-1.71,3.99-4.05,3.99
									C569.27,445.09,567.55,443.43,567.55,441.1z M574.23,441.1c0-1.66-1.12-2.74-2.62-2.74s-2.64,1.07-2.64,2.74
									c0,1.66,1.13,2.75,2.64,2.75S574.23,442.77,574.23,441.1z" class="color263238 svgShape"></path></g><g fill="#000000" class="color000000 svgShape"><path fill="#383426" d="M581.8,437.13v1.37c-0.12-0.01-0.22-0.01-0.32-0.01c-1.52,0-2.46,0.93-2.46,2.63V445h-1.41v-7.8h1.35
									v1.31C579.46,437.6,580.44,437.13,581.8,437.13z" class="color263238 svgShape"></path></g><g fill="#000000" class="color000000 svgShape"><path fill="#383426" d="M590.82,434.08V445h-1.35v-1.24c-0.63,0.88-1.63,1.32-2.78,1.32c-2.28,0-3.94-1.6-3.94-3.99
									c0-2.38,1.66-3.97,3.94-3.97c1.11,0,2.08,0.41,2.72,1.25v-4.3H590.82z M589.42,441.1c0-1.66-1.13-2.74-2.62-2.74
									c-1.5,0-2.64,1.07-2.64,2.74c0,1.66,1.13,2.75,2.64,2.75C588.29,443.86,589.42,442.77,589.42,441.1z" class="color263238 svgShape"></path></g></g><g fill="#000000" class="color000000 svgShape"><g fill="#000000" class="color000000 svgShape"><path fill="#383426" d="M520.84,503.92c0-3.05,2.32-5.27,5.46-5.27c1.59,0,2.97,0.54,3.92,1.6l-0.96,0.93
									c-0.8-0.84-1.77-1.22-2.9-1.22c-2.33,0-4.05,1.68-4.05,3.96c0,2.28,1.72,3.96,4.05,3.96c1.13,0,2.1-0.4,2.9-1.24l0.96,0.93
									c-0.94,1.06-2.33,1.62-3.93,1.62C523.17,509.19,520.84,506.97,520.84,503.92z" class="color263238 svgShape"></path></g><g fill="#000000" class="color000000 svgShape"><path fill="#383426" d="M531.07,505.17c0-2.33,1.72-3.97,4.06-3.97c2.34,0,4.05,1.65,4.05,3.97c0,2.33-1.71,3.99-4.05,3.99
									C532.79,509.16,531.07,507.5,531.07,505.17z M537.75,505.17c0-1.66-1.12-2.74-2.62-2.74c-1.5,0-2.64,1.07-2.64,2.74
									c0,1.66,1.13,2.75,2.64,2.75C536.63,507.92,537.75,506.83,537.75,505.17z" class="color263238 svgShape"></path></g><g fill="#000000" class="color000000 svgShape"><path fill="#383426" d="M548.53,504.58v4.49h-1.41v-4.33c0-1.53-0.77-2.28-2.1-2.28c-1.5,0-2.47,0.9-2.47,2.59v4.02h-1.41v-7.8
									h1.35v1.18c0.57-0.79,1.57-1.25,2.81-1.25C547.19,501.2,548.53,502.29,548.53,504.58z" class="color263238 svgShape"></path></g><g fill="#000000" class="color000000 svgShape"><path fill="#383426" d="M553.93,498.06c0.6,0,1.19,0.15,1.59,0.46l-0.43,1.07c-0.3-0.22-0.68-0.37-1.09-0.37
									c-0.84,0-1.27,0.47-1.27,1.37v0.68H555v1.16h-2.24v6.64h-1.41v-6.64h-1.32v-1.16h1.32v-0.69
									C551.35,499.06,552.27,498.06,553.93,498.06z M557.27,498.86c0-0.52,0.41-0.93,0.96-0.93c0.55,0,0.96,0.4,0.96,0.9
									c0,0.53-0.4,0.94-0.96,0.94C557.68,499.77,557.27,499.37,557.27,498.86z M557.52,501.27h1.41v7.8h-1.41V501.27z" class="color263238 svgShape"></path></g><g fill="#000000" class="color000000 svgShape"><path fill="#383426" d="M565.81,501.2v1.37c-0.12-0.02-0.22-0.02-0.32-0.02c-1.52,0-2.46,0.93-2.46,2.64v3.89h-1.41v-7.8h1.35
									v1.31C563.47,501.67,564.45,501.2,565.81,501.2z" class="color263238 svgShape"></path></g><g fill="#000000" class="color000000 svgShape"><path fill="#383426" d="M580.5,504.58v4.49h-1.41v-4.33c0-1.53-0.74-2.28-2.02-2.28c-1.41,0-2.34,0.9-2.34,2.59v4.02h-1.41
									v-4.33c0-1.53-0.74-2.28-2.02-2.28c-1.41,0-2.34,0.9-2.34,2.59v4.02h-1.41v-7.8h1.35v1.16c0.56-0.8,1.52-1.24,2.69-1.24
									c1.19,0,2.19,0.47,2.71,1.44c0.59-0.88,1.68-1.44,3-1.44C579.2,501.2,580.5,502.29,580.5,504.58z" class="color263238 svgShape"></path></g><g fill="#000000" class="color000000 svgShape"><path fill="#383426" d="M595.58,502.36c0,2.24-1.62,3.59-4.3,3.59h-2.55v3.12h-1.47v-10.3h4.02
									C593.96,498.77,595.58,500.12,595.58,502.36z M594.1,502.36c0-1.47-0.99-2.31-2.87-2.31h-2.5v4.62h2.5
									C593.12,504.67,594.1,503.83,594.1,502.36z" class="color263238 svgShape"></path></g><g fill="#000000" class="color000000 svgShape"><path fill="#383426" d="M603.64,504.36v4.71h-1.34v-1.03c-0.47,0.71-1.34,1.12-2.56,1.12c-1.77,0-2.88-0.94-2.88-2.3
									c0-1.25,0.81-2.28,3.14-2.28h2.24v-0.28c0-1.19-0.69-1.88-2.09-1.88c-0.93,0-1.87,0.32-2.47,0.84l-0.59-1.06
									c0.81-0.65,1.97-1,3.22-1C602.43,501.2,603.64,502.23,603.64,504.36z M602.22,506.69v-1.09h-2.18c-1.4,0-1.8,0.54-1.8,1.21
									c0,0.78,0.65,1.27,1.72,1.27C601.03,508.07,601.87,507.58,602.22,506.69z" class="color263238 svgShape"></path></g><g fill="#000000" class="color000000 svgShape"><path fill="#383426" d="M605.27,508.25l0.59-1.12c0.66,0.47,1.72,0.81,2.74,0.81c1.31,0,1.86-0.4,1.86-1.06
									c0-1.75-4.93-0.24-4.93-3.34c0-1.4,1.25-2.34,3.25-2.34c1.02,0,2.16,0.26,2.84,0.71l-0.6,1.12
									c-0.71-0.46-1.49-0.62-2.25-0.62c-1.24,0-1.84,0.46-1.84,1.07c0,1.84,4.95,0.34,4.95,3.37c0,1.41-1.3,2.31-3.37,2.31
									C607.19,509.16,605.91,508.76,605.27,508.25z" class="color263238 svgShape"></path></g><g fill="#000000" class="color000000 svgShape"><path fill="#383426" d="M612.63,508.25l0.59-1.12c0.66,0.47,1.72,0.81,2.74,0.81c1.31,0,1.85-0.4,1.85-1.06
									c0-1.75-4.93-0.24-4.93-3.34c0-1.4,1.25-2.34,3.25-2.34c1.02,0,2.16,0.26,2.84,0.71l-0.6,1.12
									c-0.71-0.46-1.49-0.62-2.25-0.62c-1.24,0-1.84,0.46-1.84,1.07c0,1.84,4.95,0.34,4.95,3.37c0,1.41-1.3,2.31-3.37,2.31
									C614.56,509.16,613.28,508.76,612.63,508.25z" class="color263238 svgShape"></path></g><g fill="#000000" class="color000000 svgShape"><path fill="#383426" d="M632.65,501.27l-2.91,7.8h-1.35l-2.25-5.92l-2.28,5.92h-1.35l-2.9-7.8h1.34l2.27,6.21l2.35-6.21h1.19
									l2.31,6.24l2.33-6.24H632.65z" class="color263238 svgShape"></path></g><g fill="#000000" class="color000000 svgShape"><path fill="#383426" d="M633.13,505.17c0-2.33,1.72-3.97,4.06-3.97c2.34,0,4.05,1.65,4.05,3.97c0,2.33-1.71,3.99-4.05,3.99
									C634.85,509.16,633.13,507.5,633.13,505.17z M639.81,505.17c0-1.66-1.12-2.74-2.62-2.74c-1.5,0-2.64,1.07-2.64,2.74
									c0,1.66,1.13,2.75,2.64,2.75C638.69,507.92,639.81,506.83,639.81,505.17z" class="color263238 svgShape"></path></g><g fill="#000000" class="color000000 svgShape"><path fill="#383426" d="M647.38,501.2v1.37c-0.12-0.02-0.22-0.02-0.32-0.02c-1.52,0-2.46,0.93-2.46,2.64v3.89h-1.41v-7.8h1.35
									v1.31C645.04,501.67,646.02,501.2,647.38,501.2z" class="color263238 svgShape"></path></g><g fill="#000000" class="color000000 svgShape"><path fill="#383426" d="M656.4,498.15v10.92h-1.35v-1.24c-0.63,0.88-1.63,1.32-2.78,1.32c-2.28,0-3.94-1.6-3.94-3.99
									c0-2.38,1.66-3.97,3.94-3.97c1.11,0,2.08,0.41,2.72,1.25v-4.3H656.4z M655,505.17c0-1.66-1.13-2.74-2.62-2.74
									c-1.5,0-2.64,1.07-2.64,2.74c0,1.66,1.13,2.75,2.64,2.75C653.87,507.92,655,506.83,655,505.17z" class="color263238 svgShape"></path></g></g><g fill="#000000" class="color000000 svgShape"><g fill="#000000" class="color000000 svgShape"><path fill="#ffd75c" d="M756.43,593.33H502.65c-1.14,0-2.06-0.92-2.06-2.06v-40.44c0-1.14,0.92-2.06,2.06-2.06h253.78
									c1.14,0,2.06,0.92,2.06,2.06v40.44C758.49,592.41,757.57,593.33,756.43,593.33z" class="colorffde5c svgShape"></path></g></g><g fill="#000000" class="color000000 svgShape"><g fill="#000000" class="color000000 svgShape"><path fill="#ffffff" d="M597.63,571.39c0-3.13,2.4-5.36,5.67-5.36c1.9,0,3.43,0.69,4.43,1.94l-1.85,1.68
									c-0.65-0.78-1.44-1.21-2.43-1.21c-1.69,0-2.87,1.18-2.87,2.94c0,1.77,1.18,2.94,2.87,2.94c0.99,0,1.78-0.43,2.43-1.21
									l1.85,1.68c-1,1.25-2.53,1.94-4.43,1.94C600.03,576.75,597.63,574.53,597.63,571.39z" class="colorffffff svgShape"></path></g><g fill="#000000" class="color000000 svgShape"><path fill="#ffffff" d="M617.38,571.98v4.56h-2.8v-4.11c0-1.15-0.5-1.63-1.31-1.63c-0.9,0-1.59,0.56-1.59,1.88v3.86h-2.8
									v-10.92h2.8v3.68c0.62-0.57,1.46-0.87,2.4-0.87C615.96,568.43,617.38,569.51,617.38,571.98z" class="colorffffff svgShape"></path></g><g fill="#000000" class="color000000 svgShape"><path fill="#ffffff" d="M626.61,572.11v4.43h-2.6v-1.03c-0.4,0.77-1.19,1.16-2.35,1.16c-1.91,0-2.97-1.07-2.97-2.46
									c0-1.47,1.07-2.38,3.55-2.38h1.59c-0.04-0.81-0.59-1.27-1.69-1.27c-0.77,0-1.62,0.26-2.16,0.69l-0.94-1.9
									c0.91-0.6,2.27-0.93,3.52-0.93C625.12,568.43,626.61,569.58,626.61,572.11z M623.82,573.98v-0.69h-1.21
									c-0.9,0-1.22,0.32-1.22,0.81c0,0.47,0.38,0.81,1.05,0.81C623.05,574.91,623.59,574.61,623.82,573.98z" class="colorffffff svgShape"></path></g><g fill="#000000" class="color000000 svgShape"><path fill="#ffffff" d="M636.87,571.98v4.56h-2.8v-4.11c0-1.15-0.5-1.63-1.31-1.63c-0.9,0-1.59,0.56-1.59,1.88v3.86h-2.8v-7.98
									h2.66v0.87c0.63-0.66,1.53-1,2.53-1C635.44,568.43,636.87,569.51,636.87,571.98z" class="colorffffff svgShape"></path></g><g fill="#000000" class="color000000 svgShape"><path fill="#ffffff" d="M647.32,568.56v6.52c0,3.02-1.71,4.44-4.68,4.44c-1.53,0-2.99-0.35-3.96-1.04l1.02-1.96
									c0.66,0.53,1.75,0.85,2.69,0.85c1.5,0,2.13-0.68,2.13-1.93v-0.26c-0.54,0.63-1.35,0.94-2.37,0.94
									c-2.12,0-3.91-1.5-3.91-3.86c0-2.34,1.8-3.84,3.91-3.84c1.1,0,1.96,0.35,2.5,1.11v-0.97H647.32z M644.55,572.27
									c0-0.97-0.74-1.62-1.74-1.62c-1,0-1.75,0.65-1.75,1.62c0,0.97,0.75,1.63,1.75,1.63
									C643.81,573.91,644.55,573.25,644.55,572.27z" class="colorffffff svgShape"></path></g><g fill="#000000" class="color000000 svgShape"><path fill="#ffffff" d="M657.22,573.26h-5.8c0.24,0.81,0.93,1.28,1.96,1.28c0.78,0,1.3-0.22,1.84-0.69l1.47,1.53
									c-0.77,0.85-1.88,1.3-3.4,1.3c-2.84,0-4.68-1.75-4.68-4.14c0-2.4,1.87-4.11,4.39-4.11c2.35,0,4.27,1.5,4.27,4.14
									C657.27,572.77,657.24,573.04,657.22,573.26z M651.38,571.79h3.27c-0.15-0.84-0.77-1.37-1.63-1.37
									C652.14,570.42,651.54,570.95,651.38,571.79z" class="colorffffff svgShape"></path></g></g></g></g><g fill="#000000" class="color000000 svgShape"><g fill="#000000" class="color000000 svgShape"><path fill="#383426" d="M605.54,355.41h-2.36v4.06h-4.32v-15.29h6.99c4.17,0,6.79,2.16,6.79,5.66c0,2.25-1.09,3.91-2.99,4.83
							l3.3,4.81h-4.63L605.54,355.41z M605.58,347.59h-2.4v4.48h2.4c1.79,0,2.69-0.83,2.69-2.23
							C608.27,348.42,607.37,347.59,605.58,347.59z" class="color263238 svgShape"></path></g><g fill="#000000" class="color000000 svgShape"><path fill="#383426" d="M626.85,354.6h-8.6c0.35,1.2,1.38,1.9,2.9,1.9c1.16,0,1.92-0.33,2.73-1.03l2.18,2.27
							c-1.14,1.27-2.8,1.92-5.05,1.92c-4.22,0-6.94-2.6-6.94-6.14c0-3.56,2.77-6.09,6.51-6.09c3.49,0,6.33,2.23,6.33,6.14
							C626.92,353.88,626.88,354.28,626.85,354.6z M618.18,352.42h4.85c-0.22-1.25-1.14-2.03-2.42-2.03
							C619.32,350.39,618.42,351.17,618.18,352.42z" class="color263238 svgShape"></path></g><g fill="#000000" class="color000000 svgShape"><path fill="#383426" d="M627.91,358.45l1.24-2.84c1.09,0.68,2.69,1.09,4.13,1.09c1.4,0,1.86-0.31,1.86-0.81
							c0-1.59-6.99,0.22-6.99-4.52c0-2.23,2.05-3.93,5.77-3.93c1.66,0,3.49,0.35,4.67,1l-1.24,2.82c-1.18-0.66-2.36-0.87-3.41-0.87
							c-1.4,0-1.9,0.39-1.9,0.83c0,1.64,6.97-0.13,6.97,4.56c0,2.18-2.01,3.89-5.85,3.89C631.14,359.67,629.06,359.17,627.91,358.45
							z" class="color263238 svgShape"></path></g><g fill="#000000" class="color000000 svgShape"><path fill="#383426" d="M652.83,354.6h-8.6c0.35,1.2,1.38,1.9,2.9,1.9c1.16,0,1.92-0.33,2.73-1.03l2.18,2.27
							c-1.14,1.27-2.8,1.92-5.05,1.92c-4.22,0-6.94-2.6-6.94-6.14c0-3.56,2.77-6.09,6.51-6.09c3.49,0,6.33,2.23,6.33,6.14
							C652.89,353.88,652.85,354.28,652.83,354.6z M644.16,352.42H649c-0.22-1.25-1.14-2.03-2.42-2.03
							C645.29,350.39,644.4,351.17,644.16,352.42z" class="color263238 svgShape"></path></g><g fill="#000000" class="color000000 svgShape"><path fill="#383426" d="M662.98,358.99c-0.72,0.46-1.79,0.68-2.88,0.68c-3.04,0-4.81-1.49-4.81-4.52v-3.98h-1.73v-3.1h1.73v-3.08
							h4.15v3.08h2.71v3.1h-2.71v3.93c0,0.87,0.5,1.35,1.24,1.35c0.46,0,0.92-0.13,1.27-0.37L662.98,358.99z" class="color263238 svgShape"></path></g></g><g fill="#000000" class="color000000 svgShape"><g fill="#000000" class="color000000 svgShape"><path fill="#383426" d="M553.94,378.51V384h-4.32v-5.55l-5.83-9.74h4.56l3.62,6.07l3.63-6.07h4.19L553.94,378.51z" class="color263238 svgShape"></path></g><g fill="#000000" class="color000000 svgShape"><path fill="#383426" d="M558.64,378.05c0-3.56,2.82-6.09,6.68-6.09c3.91,0,6.68,2.53,6.68,6.09c0,3.58-2.77,6.14-6.68,6.14
							C561.46,384.19,558.64,381.64,558.64,378.05z M567.81,378.05c0-1.79-1.07-2.8-2.49-2.8c-1.4,0-2.49,1-2.49,2.8
							c0,1.81,1.09,2.84,2.49,2.84C566.74,380.89,567.81,379.87,567.81,378.05z" class="color263238 svgShape"></path></g><g fill="#000000" class="color000000 svgShape"><path fill="#383426" d="M586.38,372.16V384h-3.95v-1.27c-0.9,0.98-2.16,1.46-3.52,1.46c-2.9,0-5.02-1.66-5.02-5.42v-6.62h4.15
							v5.94c0,1.83,0.72,2.56,1.97,2.56c1.22,0,2.23-0.81,2.23-2.8v-5.7H586.38z" class="color263238 svgShape"></path></g><g fill="#000000" class="color000000 svgShape"><path fill="#383426" d="M596.97,371.96v3.73c-0.37-0.04-0.63-0.06-0.94-0.06c-1.68,0-2.84,0.85-2.84,2.93V384h-4.15v-11.84H593
							v1.42C593.85,372.51,595.22,371.96,596.97,371.96z" class="color263238 svgShape"></path></g><g fill="#000000" class="color000000 svgShape"><path fill="#383426" d="M619.06,374.36c0,3.47-2.62,5.64-6.79,5.64h-2.66v4h-4.32v-15.29h6.99
							C616.43,368.71,619.06,370.87,619.06,374.36z M614.69,374.36c0-1.42-0.89-2.25-2.69-2.25h-2.4v4.48h2.4
							C613.79,376.59,614.69,375.76,614.69,374.36z" class="color263238 svgShape"></path></g><g fill="#000000" class="color000000 svgShape"><path fill="#383426" d="M631.94,377.42V384h-3.86v-1.53c-0.59,1.14-1.77,1.73-3.49,1.73c-2.84,0-4.41-1.59-4.41-3.65
							c0-2.18,1.6-3.54,5.26-3.54h2.36c-0.07-1.2-0.87-1.88-2.51-1.88c-1.14,0-2.4,0.39-3.21,1.03l-1.4-2.82
							c1.35-0.9,3.36-1.38,5.22-1.38C629.74,371.96,631.94,373.66,631.94,377.42z M627.79,380.2v-1.03H626
							c-1.33,0-1.81,0.48-1.81,1.2c0,0.7,0.57,1.2,1.55,1.2C626.66,381.57,627.47,381.13,627.79,380.2z" class="color263238 svgShape"></path></g><g fill="#000000" class="color000000 svgShape"><path fill="#383426" d="M633.63,382.97l1.24-2.84c1.09,0.68,2.69,1.09,4.13,1.09c1.4,0,1.86-0.31,1.86-0.81
							c0-1.59-6.99,0.22-6.99-4.52c0-2.23,2.05-3.93,5.77-3.93c1.66,0,3.49,0.35,4.67,1l-1.24,2.82c-1.18-0.66-2.36-0.87-3.41-0.87
							c-1.4,0-1.9,0.39-1.9,0.83c0,1.64,6.97-0.13,6.97,4.56c0,2.18-2.01,3.89-5.85,3.89C636.86,384.19,634.78,383.69,633.63,382.97
							z" class="color263238 svgShape"></path></g><g fill="#000000" class="color000000 svgShape"><path fill="#383426" d="M645.57,382.97l1.24-2.84c1.09,0.68,2.69,1.09,4.13,1.09c1.4,0,1.86-0.31,1.86-0.81
							c0-1.59-6.99,0.22-6.99-4.52c0-2.23,2.05-3.93,5.77-3.93c1.66,0,3.49,0.35,4.67,1l-1.24,2.82c-1.18-0.66-2.36-0.87-3.41-0.87
							c-1.4,0-1.9,0.39-1.9,0.83c0,1.64,6.97-0.13,6.97,4.56c0,2.18-2.01,3.89-5.85,3.89C648.81,384.19,646.73,383.69,645.57,382.97
							z" class="color263238 svgShape"></path></g><g fill="#000000" class="color000000 svgShape"><path fill="#383426" d="M677.86,372.16L673.64,384h-4.02l-2.23-6.44l-2.31,6.44h-4.02l-4.21-11.84h3.93l2.42,7.16l2.51-7.16h3.54
							l2.45,7.23l2.51-7.23H677.86z" class="color263238 svgShape"></path></g><g fill="#000000" class="color000000 svgShape"><path fill="#383426" d="M678.06,378.05c0-3.56,2.82-6.09,6.68-6.09c3.91,0,6.68,2.53,6.68,6.09c0,3.58-2.77,6.14-6.68,6.14
							C680.87,384.19,678.06,381.64,678.06,378.05z M687.23,378.05c0-1.79-1.07-2.8-2.49-2.8c-1.4,0-2.49,1-2.49,2.8
							c0,1.81,1.09,2.84,2.49,2.84C686.16,380.89,687.23,379.87,687.23,378.05z" class="color263238 svgShape"></path></g><g fill="#000000" class="color000000 svgShape"><path fill="#383426" d="M701.27,371.96v3.73c-0.37-0.04-0.63-0.06-0.94-0.06c-1.68,0-2.84,0.85-2.84,2.93V384h-4.15v-11.84h3.95
							v1.42C698.15,372.51,699.53,371.96,701.27,371.96z" class="color263238 svgShape"></path></g><g fill="#000000" class="color000000 svgShape"><path fill="#383426" d="M715.45,367.79V384h-3.95v-1.18c-0.79,0.94-1.94,1.38-3.47,1.38c-3.23,0-5.83-2.36-5.83-6.14
							c0-3.76,2.6-6.09,5.83-6.09c1.38,0,2.49,0.39,3.28,1.22v-5.4H715.45z M711.37,378.05c0-1.79-1.07-2.8-2.47-2.8
							c-1.42,0-2.49,1-2.49,2.8c0,1.81,1.07,2.84,2.49,2.84C710.3,380.89,711.37,379.87,711.37,378.05z" class="color263238 svgShape"></path></g></g></g><g fill="#000000" class="color000000 svgShape"><g fill="#000000" class="color000000 svgShape"><g fill="#000000" class="color000000 svgShape"><g fill="#000000" class="color000000 svgShape"><g fill="#000000" class="color000000 svgShape"><g fill="#000000" class="color000000 svgShape"><g fill="#000000" class="color000000 svgShape"><g fill="#000000" class="color000000 svgShape"><g fill="#000000" class="color000000 svgShape"><g fill="#000000" class="color000000 svgShape"><path fill="#e0e0e0" d="M673.13,276.85l-11.17-2.33l14.18-68.04c0.64-3.08-0.36-7.68-2.2-10.24
														c-17.8-24.65-46.77-14.63-51.21,6.66l-12.67,60.8l-11.17-2.33l14.27-68.48c1.49-7.17,6.11-13.33,12.62-16.68
														c35.99-18.54,66.18,10.28,60.03,39.83L673.13,276.85z" class="colore0e0e0 svgShape"></path></g></g></g><g fill="#000000" class="color000000 svgShape"><g fill="#000000" class="color000000 svgShape"><g fill="#000000" class="color000000 svgShape"><g fill="#000000" class="color000000 svgShape"><path fill="#383426" d="M673.13,276.85c0,0,0.07-0.42,0.23-1.22c0.16-0.81,0.4-1.99,0.72-3.53
															c0.64-3.11,1.57-7.67,2.77-13.54c1.21-5.87,2.68-13.04,4.4-21.37c0.86-4.16,1.78-8.61,2.75-13.33
															c0.88-4.72,2.34-9.67,2.39-15.01c0.12-5.33-1.03-10.94-3.47-16.21c-0.31-0.66-0.61-1.33-0.94-1.98
															c-0.37-0.63-0.75-1.27-1.13-1.91c-0.7-1.31-1.68-2.46-2.54-3.7c-0.44-0.61-0.99-1.15-1.48-1.73
															c-0.52-0.55-0.97-1.18-1.56-1.69c-1.14-1.04-2.22-2.16-3.5-3.06c-2.42-2-5.26-3.5-8.18-4.88
															c-0.76-0.28-1.52-0.57-2.28-0.85l-1.15-0.43c-0.39-0.12-0.79-0.21-1.19-0.32c-0.79-0.21-1.59-0.42-2.39-0.63
															c-0.81-0.17-1.64-0.27-2.46-0.41c-6.59-1.06-13.65-0.12-20.13,2.58c-3.25,1.37-6.28,3.28-9.12,5.5
															c-2.79,2.29-5.24,5.02-7.36,8.02c-2.07,3.05-3.64,6.45-4.81,10.02c-1.03,3.6-1.69,7.39-2.5,11.15
															c-3.14,15.09-6.4,30.71-9.73,46.71c-0.45,2.14-0.89,4.27-1.33,6.38l-0.21-0.32c3.8,0.79,7.54,1.57,11.17,2.33
															l-0.32,0.21c2.52-12.09,4.99-23.92,7.39-35.42c1.2-5.75,2.38-11.41,3.55-16.98c0.58-2.79,1.16-5.55,1.73-8.29
															c0.61-2.76,1.6-5.4,2.94-7.83c2.77-4.8,6.94-8.67,11.76-10.92c0.61-0.26,1.19-0.6,1.82-0.8l1.87-0.66
															c1.27-0.32,2.53-0.71,3.83-0.85c1.28-0.24,2.58-0.26,3.87-0.32c0.64-0.01,1.28,0.06,1.92,0.08l0.96,0.05l0.94,0.15
															c2.53,0.29,4.94,1.11,7.22,2.06c2.26,1.02,4.33,2.36,6.21,3.88c3.66,3.14,6.46,7.1,7.96,11.41
															c0.84,2.12,1.22,4.35,1.51,6.53c0.14,2.2,0.16,4.38-0.2,6.48c-0.08,0.53-0.17,1.05-0.25,1.57
															c-0.11,0.51-0.21,1.02-0.32,1.53c-0.21,1.02-0.42,2.02-0.63,3.02c-0.42,1.99-0.83,3.95-1.23,5.87
															c-1.61,7.67-3.09,14.72-4.43,21.08c-2.68,12.71-4.78,22.64-6.17,29.26l-0.06-0.09c3.79,0.81,6.57,1.41,8.41,1.8
															c0.91,0.2,1.59,0.35,2.06,0.45C672.9,276.79,673.13,276.85,673.13,276.85s-0.21-0.03-0.66-0.12
															c-0.46-0.09-1.14-0.23-2.05-0.41c-1.86-0.38-4.66-0.95-8.48-1.72l-0.08-0.02l0.02-0.08
															c1.36-6.62,3.41-16.57,6.03-29.28c1.32-6.36,2.78-13.42,4.36-21.09c0.4-1.92,0.8-3.88,1.22-5.87
															c0.21-1,0.42-2,0.63-3.02c0.11-0.51,0.21-1.02,0.32-1.53c0.08-0.51,0.16-1.03,0.24-1.55
															c0.36-2.07,0.33-4.22,0.19-6.38c-0.29-2.15-0.67-4.34-1.5-6.43c-1.48-4.23-4.25-8.13-7.86-11.21
															c-1.84-1.5-3.88-2.8-6.11-3.81c-2.25-0.93-4.61-1.73-7.1-2.01l-0.93-0.14l-0.94-0.05c-0.63-0.02-1.26-0.09-1.89-0.08
															c-1.26,0.06-2.54,0.08-3.8,0.32c-1.27,0.14-2.51,0.52-3.76,0.84l-1.83,0.65c-0.62,0.2-1.19,0.53-1.79,0.79
															c-4.74,2.22-8.83,6.02-11.54,10.73c-1.32,2.38-2.28,4.98-2.88,7.68c-0.57,2.74-1.14,5.5-1.72,8.29
															c-1.16,5.57-2.34,11.24-3.53,16.99c-2.39,11.5-4.86,23.33-7.38,35.42l-0.05,0.26l-0.26-0.05
															c-3.63-0.76-7.37-1.54-11.17-2.33l-0.26-0.05l0.05-0.26c0.44-2.11,0.88-4.24,1.33-6.38c3.34-16,6.59-31.62,9.74-46.71
															c0.82-3.77,1.47-7.52,2.52-11.2c1.19-3.62,2.79-7.06,4.89-10.16c2.15-3.05,4.64-5.81,7.47-8.13
															c2.87-2.25,5.95-4.18,9.24-5.56c6.57-2.73,13.72-3.67,20.39-2.59c0.83,0.14,1.67,0.24,2.49,0.41l2.78,0.73
															c0.5,0.16,1.01,0.32,1.51,0.48l2.27,0.85c0.35,0.15,0.69,0.29,1.04,0.44c2.77,1.34,5.46,2.8,7.76,4.71
															c1.3,0.91,2.39,2.05,3.54,3.1c0.59,0.51,1.05,1.14,1.57,1.71c0.5,0.59,1.05,1.13,1.49,1.75
															c0.87,1.26,1.86,2.42,2.56,3.74c0.38,0.65,0.76,1.29,1.13,1.93c0.34,0.66,0.63,1.34,0.95,2
															c2.45,5.34,3.61,11.01,3.48,16.39c-0.06,5.41-1.55,10.38-2.44,15.11c-0.99,4.73-1.93,9.19-2.81,13.36
															c-1.76,8.33-3.27,15.51-4.51,21.38c-1.24,5.85-2.2,10.39-2.86,13.48c-0.33,1.53-0.58,2.69-0.75,3.49
															C673.23,276.46,673.13,276.85,673.13,276.85z" class="color263238 svgShape"></path></g></g></g></g></g></g></g><g fill="#000000" class="color000000 svgShape"><g fill="#000000" class="color000000 svgShape"><g fill="#000000" class="color000000 svgShape"><g fill="#000000" class="color000000 svgShape"><g fill="#000000" class="color000000 svgShape"><path fill="#645c45" d="M676.4,325.54l-100.29-20.9l17.83-85.57l99.81,20.8c2.86,0.6,4.7,3.4,4.1,6.26l-15.77,75.68
													C681.55,324.41,679,326.08,676.4,325.54z" class="color455a64 svgShape"></path></g></g></g></g></g><g opacity=".3" fill="#000000" class="color000000 svgShape"><g fill="#000000" class="color000000 svgShape"><g fill="#000000" class="color000000 svgShape"><g fill="#000000" class="color000000 svgShape"><g fill="#000000" class="color000000 svgShape"><path d="M675.94,325.51l-99.76-20.79l17.83-85.57l99.29,20.69c3.15,0.66,5.18,3.75,4.52,6.9l-15.55,74.63
													C681.66,324.26,678.83,326.11,675.94,325.51z" fill="#000000" class="color000000 svgShape"></path></g></g></g></g></g><g fill="#000000" class="color000000 svgShape"><g fill="#000000" class="color000000 svgShape"><g fill="#000000" class="color000000 svgShape"><g fill="#000000" class="color000000 svgShape"><g fill="#000000" class="color000000 svgShape"><path fill="#645c45" d="M661.85,322.51l-84.71-17.66c-3.21-0.67-5.27-3.82-4.6-7.03l15.45-74.13
													c0.65-3.11,3.69-5.1,6.8-4.45l86.16,17.96c3.11,0.65,5.1,3.69,4.45,6.8l-15.23,73.06
													C669.38,320.86,665.66,323.3,661.85,322.51z" class="color455a64 svgShape"></path></g></g></g></g></g><g opacity=".3" fill="#000000" class="color000000 svgShape"><g fill="#000000" class="color000000 svgShape"><path d="M644.06,266.29c1.4-6.72-3.02-13.3-9.83-14.51c-6.35-1.13-12.68,3.12-14.05,9.43c-1.19,5.5,1.55,10.87,6.28,13.35
										l-11.23,14.86l20.52,4.67l-2.77-18.17C638.28,275.53,642.92,271.75,644.06,266.29z" fill="#000000" class="color000000 svgShape"></path></g></g></g></g></g><g fill="#000000" class="color000000 svgShape"><g fill="#000000" class="color000000 svgShape"><g fill="#000000" class="color000000 svgShape"><g fill="#000000" class="color000000 svgShape"><path fill="#383426" d="M670.47,315.92c-0.14-0.03,2.91-14.94,6.82-33.3c3.91-18.37,7.2-33.23,7.34-33.2
									c0.14,0.03-2.91,14.94-6.82,33.31C673.9,301.08,670.62,315.95,670.47,315.92z" class="color263238 svgShape"></path></g></g></g></g><g fill="#000000" class="color000000 svgShape"><g fill="#000000" class="color000000 svgShape"><g fill="#000000" class="color000000 svgShape"><g fill="#000000" class="color000000 svgShape"><path fill="#ffffff" d="M663.52,236.27c-0.03,0.14-13.2-2.3-29.41-5.45c-16.22-3.16-29.34-5.83-29.31-5.98
									c0.03-0.14,13.2,2.3,29.42,5.45C650.42,233.45,663.54,236.12,663.52,236.27z" class="colorffffff svgShape"></path></g></g></g></g><g fill="#000000" class="color000000 svgShape"><g fill="#000000" class="color000000 svgShape"><g fill="#000000" class="color000000 svgShape"><g fill="#000000" class="color000000 svgShape"><path fill="#ffffff" d="M618.43,267.66c-0.03,0.01-0.17-0.29-0.34-0.85c-0.17-0.56-0.36-1.4-0.45-2.45
									c-0.19-2.09,0.14-5.13,1.77-7.96c1.63-2.83,4.09-4.66,5.99-5.54c0.95-0.45,1.77-0.71,2.34-0.85c0.57-0.13,0.9-0.17,0.9-0.13
									c0.03,0.1-1.25,0.35-3.08,1.32c-1.81,0.95-4.13,2.75-5.7,5.47c-1.56,2.72-1.95,5.64-1.85,7.68
									C618.1,266.4,618.53,267.63,618.43,267.66z" class="colorffffff svgShape"></path></g></g></g></g><g fill="#000000" class="color000000 svgShape"><g fill="#000000" class="color000000 svgShape"><g fill="#000000" class="color000000 svgShape"><g fill="#000000" class="color000000 svgShape"><path fill="#ffffff" d="M621.98,274.3c-0.1,0.11-0.74-0.33-1.44-0.98c-0.69-0.65-1.17-1.26-1.07-1.37
									c0.1-0.11,0.74,0.33,1.44,0.98C621.6,273.58,622.08,274.2,621.98,274.3z" class="colorffffff svgShape"></path></g></g></g></g><g fill="#000000" class="color000000 svgShape"><g fill="#000000" class="color000000 svgShape"><g fill="#000000" class="color000000 svgShape"><g fill="#000000" class="color000000 svgShape"><path fill="#ffffff" d="M652.17,173.47c-0.01,0.05-0.74-0.04-2.07-0.13c-1.33-0.09-3.26-0.13-5.62,0.09
									c-4.7,0.41-11.26,2.22-17.04,6.64c-5.77,4.43-9.22,10.3-10.84,14.73c-0.83,2.22-1.3,4.1-1.55,5.4
									c-0.26,1.31-0.36,2.04-0.41,2.03c-0.02,0-0.01-0.19,0.02-0.54c0.04-0.35,0.06-0.87,0.18-1.53c0.19-1.33,0.61-3.23,1.4-5.5
									c1.54-4.51,4.99-10.52,10.87-15.03c5.88-4.5,12.57-6.27,17.33-6.59c2.4-0.18,4.34-0.08,5.67,0.07
									c0.67,0.06,1.18,0.17,1.53,0.22C651.99,173.41,652.17,173.45,652.17,173.47z" class="colorffffff svgShape"></path></g></g></g></g><g fill="#000000" class="color000000 svgShape"><g fill="#000000" class="color000000 svgShape"><g fill="#000000" class="color000000 svgShape"><g fill="#000000" class="color000000 svgShape"><path fill="#ffffff" d="M612.29,211.37c-0.14-0.03,0.04-1.45,0.42-3.16c0.37-1.71,0.79-3.08,0.94-3.04
									c0.14,0.03-0.04,1.45-0.42,3.16C612.86,210.04,612.44,211.41,612.29,211.37z" class="colorffffff svgShape"></path></g></g></g></g></g></g><g fill="#000000" class="color000000 svgShape"><g fill="#000000" class="color000000 svgShape"><g fill="#000000" class="color000000 svgShape"><path fill="#ffd75c" d="M425.07,417.91l1.49-0.15c4.38-0.45,8.3,2.74,8.75,7.13l18.7,183.17l-17.37,1.77l-18.7-183.17
						C417.5,422.28,420.69,418.36,425.07,417.91z" class="colorffde5c svgShape"></path></g></g><g fill="#000000" class="color000000 svgShape"><g fill="#000000" class="color000000 svgShape"><path fill="#ffd75c" d="M391.42,443.06l40.3-4.11l1.35,13.26l-40.3,4.11c-0.82,0.08-1.55-0.51-1.63-1.33l-1.05-10.29
						C390,443.87,390.6,443.14,391.42,443.06z" class="colorffde5c svgShape"></path></g></g><g fill="#000000" class="color000000 svgShape"><g fill="#000000" class="color000000 svgShape"><path fill="#ffd75c" d="M401.27,468.03l29.36-3c1.19-0.12,2.25,0.74,2.37,1.93l0.91,8.96c0.12,1.19-0.74,2.25-1.93,2.37
						l-29.36,3c-1.19,0.12-2.25-0.74-2.37-1.93l-0.91-8.96C399.21,469.22,400.08,468.15,401.27,468.03z" class="colorffde5c svgShape"></path></g></g><g fill="#000000" class="color000000 svgShape"><g fill="#000000" class="color000000 svgShape"><rect width="18.27" height="20.7" x="405.15" y="447.47" fill="#ffd75c" transform="rotate(174.169 414.25 457.81)" class="colorffde5c svgShape"></rect></g></g><g fill="#000000" class="color000000 svgShape"><g fill="#000000" class="color000000 svgShape"><g fill="#000000" class="color000000 svgShape"><path fill="#383426" d="M418.22,429.35c0.1-0.01,3.85,35.97,8.38,80.36c4.53,44.4,8.13,80.39,8.03,80.4
							c-0.1,0.01-3.85-35.96-8.38-80.37C421.72,465.36,418.12,429.36,418.22,429.35z" class="color263238 svgShape"></path></g></g></g><g fill="#000000" class="color000000 svgShape"><g fill="#000000" class="color000000 svgShape"><path fill="#ffd75c" d="M455.39,679.57c24.26-2.48,42.13-22.02,39.92-43.65c-2.21-21.63-23.66-37.16-47.92-34.69
						s-42.13,22.02-39.92,43.65C409.68,666.52,431.13,682.05,455.39,679.57z M448.59,612.96c17-1.74,32.03,9.15,33.58,24.31
						c1.55,15.16-10.98,28.85-27.98,30.59c-17,1.74-32.03-9.15-33.58-24.31C419.06,628.39,431.59,614.69,448.59,612.96z" class="colorffde5c svgShape"></path></g></g><g fill="#000000" class="color000000 svgShape"><g fill="#000000" class="color000000 svgShape"><path fill="#ffd75c" d="M432.33,569.47l17.96-1.83c2.39-0.24,4.52,1.49,4.76,3.88l0.08,0.81c0.24,2.39-1.49,4.52-3.88,4.76
						l-17.96,1.83c-2.39,0.24-4.52-1.49-4.76-3.88l-0.08-0.81C428.2,571.85,429.94,569.72,432.33,569.47z" class="colorffde5c svgShape"></path></g></g><g fill="#000000" class="color000000 svgShape"><g fill="#000000" class="color000000 svgShape"><path fill="#ffd75c" d="M430.37,550.28l17.96-1.83c2.39-0.24,4.52,1.49,4.76,3.88l0.08,0.81c0.24,2.39-1.49,4.52-3.88,4.76
						l-17.96,1.83c-2.39,0.24-4.52-1.49-4.76-3.88l-0.08-0.81C426.24,552.65,427.98,550.52,430.37,550.28z" class="colorffde5c svgShape"></path></g></g><g fill="#000000" class="color000000 svgShape"><g fill="#000000" class="color000000 svgShape"><g fill="#000000" class="color000000 svgShape"><path fill="#383426" d="M432,569.54c-0.01-0.1,4.08-0.55,9.14-1.03c5.06-0.47,9.16-0.78,9.17-0.68c0.01,0.1-4.08,0.55-9.14,1.03
							C436.12,569.33,432.01,569.63,432,569.54z" class="color263238 svgShape"></path></g></g></g><g fill="#000000" class="color000000 svgShape"><g fill="#000000" class="color000000 svgShape"><g fill="#000000" class="color000000 svgShape"><path fill="#383426" d="M434.03,578.83c-0.01-0.1,3.91-0.57,8.76-1.07c4.85-0.49,8.79-0.82,8.8-0.72
							c0.01,0.1-3.91,0.57-8.76,1.07C437.98,578.6,434.04,578.92,434.03,578.83z" class="color263238 svgShape"></path></g></g></g><g fill="#000000" class="color000000 svgShape"><g fill="#000000" class="color000000 svgShape"><g fill="#000000" class="color000000 svgShape"><path fill="#383426" d="M430.2,550.29c-0.01-0.1,4.08-0.59,9.14-1.11c5.06-0.52,9.16-0.86,9.17-0.76
							c0.01,0.1-4.08,0.59-9.14,1.11C434.32,550.05,430.21,550.39,430.2,550.29z" class="color263238 svgShape"></path></g></g></g><g fill="#000000" class="color000000 svgShape"><g fill="#000000" class="color000000 svgShape"><g fill="#000000" class="color000000 svgShape"><path fill="#383426" d="M431.5,559.72c-0.01-0.1,4.04-0.56,9.05-1.04c5.01-0.48,9.08-0.79,9.09-0.69
							c0.01,0.1-4.04,0.56-9.05,1.04C435.58,559.5,431.51,559.81,431.5,559.72z" class="color263238 svgShape"></path></g></g></g></g></g><g fill="#000000" class="color000000 svgShape"><g fill="#000000" class="color000000 svgShape"><g fill="#000000" class="color000000 svgShape"><path fill="#645c45" d="M118.22,659.27c-0.03,0-0.07-0.01-0.1-0.01c-0.2-0.05-0.31-0.26-0.26-0.46l37.6-135.23
					c0.05-0.2,0.26-0.31,0.46-0.26c0.2,0.06,0.31,0.26,0.26,0.46L118.58,659C118.53,659.17,118.38,659.27,118.22,659.27z" class="color455a64 svgShape"></path></g><g fill="#000000" class="color000000 svgShape"><path fill="#645c45" d="M272.39,660.96c-0.16,0-0.31-0.11-0.36-0.27l-37.6-135.23c-0.06-0.2,0.06-0.4,0.26-0.46
					c0.2-0.05,0.4,0.06,0.46,0.26l37.6,135.23c0.06,0.2-0.06,0.4-0.26,0.46C272.46,660.96,272.42,660.96,272.39,660.96z" class="color455a64 svgShape"></path></g></g><g fill="#000000" class="color000000 svgShape"><g fill="#000000" class="color000000 svgShape"><path fill="#645c45" d="M74.3,659.27c-0.03,0-0.07-0.01-0.1-0.01c-0.2-0.05-0.31-0.26-0.26-0.46l37.6-135.23
					c0.05-0.2,0.26-0.31,0.46-0.26c0.2,0.06,0.31,0.26,0.26,0.46L74.66,659C74.61,659.17,74.46,659.27,74.3,659.27z" class="color455a64 svgShape"></path></g><g fill="#000000" class="color000000 svgShape"><path fill="#645c45" d="M228.47,660.96c-0.16,0-0.31-0.11-0.36-0.27l-37.6-135.23c-0.06-0.2,0.06-0.4,0.26-0.46
					c0.2-0.05,0.4,0.06,0.46,0.26l37.6,135.23c0.06,0.2-0.06,0.4-0.26,0.46C228.54,660.96,228.5,660.96,228.47,660.96z" class="color455a64 svgShape"></path></g></g><g fill="#000000" class="color000000 svgShape"><path fill="#383426" d="M169.4,343.67c0.74,0.12,1.45,0.26,2.16,0.42c-0.01-0.28-0.1-0.49-0.26-0.58
				c-0.61-0.34,4.48-13.22-1.9-23.22c-10.2-15.99-12.64-32.07-12.64-32.07s3-0.79,1.42-5.21c-1.58-4.42-10.43-15.01-24.96-12.01
				c-4.89,1.01-13.9,6.95-15.95,15.17c-2.05,8.21-0.47,11.53-2.21,15.48c-1.74,3.95-6.16,5.69-8.37,12.95
				c-2.21,7.27,2.37,12.25,4.27,14.02c1.9,1.77,2.21,9.2-0.95,13.62c-1.42,1.99-2.51,4.17-2.27,6.27c3.37-1.8,7.13-3.11,11.59-4.05
				L169.4,343.67z" class="color263238 svgShape"></path></g><g fill="#000000" class="color000000 svgShape"><g fill="#000000" class="color000000 svgShape"><path fill="#362d12" d="M169.8,321.56c-0.16,0-0.31-0.1-0.36-0.26c-0.41-1.29-4.12-5.55-8.68-8.35
					c-0.18-0.11-0.24-0.34-0.13-0.52c0.11-0.18,0.35-0.23,0.52-0.12c4.47,2.75,8.49,7.14,9.01,8.77c0.06,0.2-0.05,0.41-0.24,0.48
					C169.87,321.56,169.83,321.56,169.8,321.56z" class="color122a36 svgShape"></path></g></g><g fill="#000000" class="color000000 svgShape"><path fill="#1c1603" d="M255.68,478.97c3.7,7.16,7.09,15.22,0.62,36.17c-5.74,18.59-45.47,107.57-45.47,107.57l-16.18-19.88
				l8.69-123.86H255.68z" class="color1c0303 svgShape"></path></g><g fill="#000000" class="color000000 svgShape"><path fill="#1c1603" d="M207.14,478.97c12.1,16.91,30.62,82.16,30.62,82.16l-2.21,5.17c0,0-18-65.87-32.22-87.32H207.14z" class="color1c0303 svgShape"></path></g><g fill="#000000" class="color000000 svgShape"><polygon fill="#1c1603" points="196.26 579.82 195.65 588.49 214.96 613.72 217.47 609.13" class="color1c0303 svgShape"></polygon></g><g fill="#000000" class="color000000 svgShape"><path fill="#645c45" d="M200.95,532.4h-91.99c-2.03,0-4.37-1.66-5.19-3.7L59.14,418.23c-0.82-2.03,0.17-3.7,2.2-3.7h91.99
				c2.03,0,4.37,1.66,5.19,3.7l44.64,110.48C203.98,530.74,202.99,532.4,200.95,532.4z" class="color455a64 svgShape"></path></g><g fill="#000000" class="color000000 svgShape"><path fill="#ffe492" d="M169.39,343.67c0,0-1.42,10.26-4.42,14.99c-2.99,4.74-9.33,12.97-17.69,13.74
				c-8.38,0.8-15.17-3.79-20.25-10.43c-5.08-6.63-7.72-17.53-7.72-17.53s13.74-1.25,15.17-2.67c1.42-1.42,3.15-6.96,1.9-10.9
				c-1.27-3.96-7.43-12.02-7.43-12.02c-4.59-0.47-10.43-3.47-11.53-10.73c-1.12-7.28,3.94-5.69,5.04-3.96c0,0,5.21-5.04,7.58-9.78
				c2.37-4.74,3.79-9.65,3.79-9.65s7.28,3.01,12.32,4.44c5.06,1.42,11.89-1.88,11.89-1.88c0.36,1.33,3.94,11.7,4.21,21.27
				c0.08,2.79-0.11,5.52-0.76,7.92c-0.32,1.21-0.76,2.33-1.27,3.37c-3.37,7.01-10.1,10.07-10.1,10.07s-0.02,0.11-0.08,0.34
				c-0.04,0.19-0.09,0.47-0.15,0.81c-0.57,2.71-1.69,9.36,0.06,10.37C152.18,342.73,169.39,343.67,169.39,343.67z" class="colorffa992 svgShape"></path></g><g fill="#000000" class="color000000 svgShape"><path fill="#1c1603" d="M115.24,466.69c-4.39,4.85-8.09,11.86-11.56,23.88c-3.47,12.02-0.92,22.42,5.78,27.73
				c6.7,5.32,12.94,4.85,21.03,4.85s44.38,0,44.38,0s0.69,14.56,11.09,37.9c10.4,23.34,52.97,81.53,52.97,81.53l20.8,0.08
				c0,0-37.25-117.67-42.33-133.84c-5.08-16.18-11.79-27.97-15.49-31.43c-3.7-3.47-27.72-9.8-44.84-9.79
				C139.95,467.62,115.24,466.69,115.24,466.69z" class="color1c0303 svgShape"></path></g><g fill="#000000" class="color000000 svgShape"><polygon fill="#ffc000" points="194.65 602.84 184.97 623.87 221.92 662.7 210.83 622.71" class="colorffa700 svgShape"></polygon></g><g fill="#000000" class="color000000 svgShape"><polygon fill="#ffc000" points="238.92 642.59 245.4 662.7 296.47 662.7 259.72 642.67" class="colorffa700 svgShape"></polygon></g><g fill="#000000" class="color000000 svgShape"><path fill="#ffe492" d="M217.31,421.46l-1.31-3.41c-6.01,2.13-23.34,15.89-23.34,15.89c0.62,2.31,5.7,13.72,12.33,17.41
				c6.63,3.69,20.6-2.49,29.28-7.86c10.94-6.77,29.74-21.01,29.74-21.01l3.7-18.89C267.7,403.59,218.39,421.46,217.31,421.46z" class="colorffa992 svgShape"></path></g><g fill="#000000" class="color000000 svgShape"><path fill="#5e594b" d="M194.97,364.84c-5.25-10.28-11.48-18.55-23.63-21.24c-0.69-0.15-1.38-0.29-2.1-0.41
				c0,0-1.39,10.02-4.31,14.64c-2.93,4.62-9.09,12.63-17.26,13.4c-8.17,0.77-14.79-3.7-19.74-10.17c-4.95-6.47-7.53-17.1-7.53-17.1
				c-4.35,0.93-8.02,2.19-11.31,3.95c-2.18,1.17-4.2,2.55-6.1,4.21c-4.78,4.16-14.33,37.8-18.03,56.06
				c-3.01,14.84-7.4,28.07-7.4,37.77c0,9.71,8.78,18.03,18.26,19.65c0,0-2.23-9.01,5.47-17.95c7.7-8.94,12.33-10.48,12.33-10.48
				l-6.12-2.31l3.81-23.34l3.62,25.97l59.26,14.14l5.53-37.33c0,0,3.24-3,3.47-5.55l9.48,25.19c0,0,17.33-13.76,23.34-15.89
				C216,418.05,200.52,375.7,194.97,364.84z" class="color4b4b5e svgShape"></path></g><g fill="#000000" class="color000000 svgShape"><g fill="#000000" class="color000000 svgShape"><path fill="#ffd75c" d="M402,356.94l-16.62,85.48c-0.42,2.21-2.57,4.01-4.78,4.01h-131.8c-2.21,0-3.67-1.81-3.23-4.01
					l16.62-85.48c0.42-2.21,2.57-4.01,4.78-4.01h131.8C400.97,352.93,402.44,354.73,402,356.94z" class="colorffde5c svgShape"></path></g><g fill="#000000" class="color000000 svgShape"><polygon fill="#ffd75c" points="350.88 374.36 319.44 374.36 302.04 441.68 312.62 459.2 287.99 463.67 287.99 467.7 317.76 467.7 349.54 467.7 332.48 441.68" class="colorffde5c svgShape"></polygon></g></g><g fill="#000000" class="color000000 svgShape"><g fill="#000000" class="color000000 svgShape"><path fill="#dfba48" d="M150.06,330.27c-0.04,0.19-0.3,1.52-0.36,1.86c-0.89,0.17-7.23,0.01-11.47-3.18
					c-0.16-0.12-0.23-0.34-0.11-0.53c0.11-0.17,0.34-0.23,0.53-0.11C141.81,330.31,146.59,331.01,150.06,330.27z" class="colordf6148 svgShape"></path></g></g><g fill="#000000" class="color000000 svgShape"><path fill="#ffe492" d="M207.14,467.69H186.5c0,0-22.5-0.22-37.29,0c-14.79,0.22-50.61-1.85-53.38-2.07c0,0-2.24-9.02,5.45-17.95
				c7.71-8.95,12.33-10.48,12.33-10.48l1.31,0.31l59.26,14.15l0.13,0.02c0,0,2.63-1.39,7.56-2c4.92-0.61,8.93,0.92,12.63,4.16
				C198.21,457.05,207.14,467.69,207.14,467.69z" class="colorffa992 svgShape"></path></g><g fill="#000000" class="color000000 svgShape"><g fill="#000000" class="color000000 svgShape"><g fill="#000000" class="color000000 svgShape"><path fill="#dbb43c" d="M202.02,467.69h-1.07c-2.37-2.24-6.1-5.82-8.54-8.38c-0.15-0.15-0.15-0.37,0-0.52
						c0.15-0.15,0.39-0.13,0.52,0C195.56,461.55,199.71,465.5,202.02,467.69z" class="colordb553c svgShape"></path></g></g><g fill="#000000" class="color000000 svgShape"><g fill="#000000" class="color000000 svgShape"><path fill="#dbb43c" d="M197.54,467.69h-1.42c-2.7-1.66-6.34-4.03-8.78-6.03c-0.15-0.13-0.17-0.37-0.04-0.52
						c0.13-0.17,0.35-0.18,0.52-0.06C190.55,463.32,194.82,466.04,197.54,467.69z" class="colordb553c svgShape"></path></g></g><g fill="#000000" class="color000000 svgShape"><g fill="#000000" class="color000000 svgShape"><path fill="#dbb43c" d="M190.87,467.69h-1.61c-2.01-1.05-4.42-2.39-6.51-3.7c-0.17-0.11-0.22-0.33-0.11-0.5
						c0.11-0.18,0.35-0.22,0.52-0.13C185.67,464.95,188.69,466.56,190.87,467.69z" class="colordb553c svgShape"></path></g></g></g><g fill="#000000" class="color000000 svgShape"><g fill="#000000" class="color000000 svgShape"><path fill="#645c45" d="M126.13,660.96c-0.03,0-0.06,0-0.09-0.01c-0.2-0.05-0.32-0.25-0.27-0.45l48.54-187.25
					c0.05-0.2,0.25-0.31,0.45-0.27c0.2,0.05,0.32,0.25,0.27,0.45l-48.54,187.25C126.45,660.85,126.3,660.96,126.13,660.96z" class="color455a64 svgShape"></path></g><g fill="#000000" class="color000000 svgShape"><path fill="#645c45" d="M485.38,660.96c-0.16,0-0.31-0.11-0.36-0.28l-48.54-187.25c-0.05-0.2,0.07-0.4,0.27-0.45
					c0.2-0.05,0.4,0.07,0.45,0.27l48.54,187.25c0.05,0.2-0.07,0.4-0.27,0.45C485.44,660.96,485.41,660.96,485.38,660.96z" class="color455a64 svgShape"></path></g></g><g fill="#000000" class="color000000 svgShape"><path fill="#645c45" d="M451.49,478.97H160.02c-2.98,0-5.42-2.44-5.42-5.42v-0.43c0-2.98,2.44-5.42,5.42-5.42h291.47
				c2.98,0,5.42,2.44,5.42,5.42v0.43C456.91,476.53,454.47,478.97,451.49,478.97z" class="color455a64 svgShape"></path></g></g></g></svg>